<svg width="1075" height="25" viewBox="0 0 1075 25" fill="none" xmlns="http://www.w3.org/2000/svg">
<path d="M5.364 17.168C4.38 17.168 3.532 16.976 2.82 16.592C2.108 16.2 1.56 15.656 1.176 14.96C0.792 14.256 0.6 13.436 0.6 12.5C0.6 11.564 0.792 10.748 1.176 10.052C1.56 9.348 2.108 8.804 2.82 8.42C3.532 8.028 4.38 7.832 5.364 7.832C6.348 7.832 7.192 8.028 7.896 8.42C8.608 8.804 9.156 9.348 9.54 10.052C9.924 10.748 10.116 11.564 10.116 12.5C10.116 13.436 9.924 14.256 9.54 14.96C9.156 15.656 8.608 16.2 7.896 16.592C7.192 16.976 6.348 17.168 5.364 17.168ZM5.364 15.86C6.364 15.86 7.14 15.568 7.692 14.984C8.244 14.392 8.52 13.564 8.52 12.5C8.52 11.436 8.244 10.612 7.692 10.028C7.14 9.436 6.364 9.14 5.364 9.14C4.364 9.14 3.584 9.436 3.024 10.028C2.472 10.612 2.196 11.436 2.196 12.5C2.196 13.564 2.472 14.392 3.024 14.984C3.584 15.568 4.364 15.86 5.364 15.86ZM11.8136 17.096C11.6296 17.096 11.4616 17.052 11.3096 16.964C11.1656 16.876 11.0496 16.76 10.9616 16.616C10.8736 16.464 10.8296 16.296 10.8296 16.112C10.8296 15.928 10.8736 15.764 10.9616 15.62C11.0496 15.468 11.1656 15.348 11.3096 15.26C11.4616 15.172 11.6296 15.128 11.8136 15.128C11.9976 15.128 12.1616 15.172 12.3056 15.26C12.4576 15.348 12.5776 15.468 12.6656 15.62C12.7536 15.764 12.7976 15.928 12.7976 16.112C12.7976 16.296 12.7536 16.464 12.6656 16.616C12.5776 16.76 12.4576 16.876 12.3056 16.964C12.1616 17.052 11.9976 17.096 11.8136 17.096ZM16.8187 8V17H15.2347V8.48L16.0987 9.248L12.3307 9.908V8.648L15.6307 8H16.8187Z" fill="#C4C6DB"/>
<path d="M37.128 18.5L39.096 15.14H39.128L44.152 6.5H46.456L39.432 18.5H37.128ZM39.144 16.644L33.192 6.5H35.528L40.552 15.06L39.144 16.644ZM55.5884 14.932C55.4817 15.6787 55.1884 16.34 54.7084 16.916C54.2284 17.4813 53.615 17.924 52.8684 18.244C52.1217 18.564 51.2897 18.724 50.3724 18.724C49.327 18.724 48.4044 18.5267 47.6044 18.132C46.815 17.7267 46.1964 17.1667 45.7484 16.452C45.3004 15.7373 45.0764 14.9107 45.0764 13.972C45.0764 13.0333 45.3004 12.2067 45.7484 11.492C46.1964 10.7773 46.815 10.2227 47.6044 9.828C48.4044 9.42267 49.327 9.22 50.3724 9.22C51.2897 9.22 52.1217 9.38 52.8684 9.7C53.615 10.02 54.2284 10.468 54.7084 11.044C55.1884 11.6093 55.4817 12.2707 55.5884 13.028H53.4924C53.343 12.3453 52.9857 11.812 52.4204 11.428C51.855 11.044 51.1724 10.852 50.3724 10.852C49.7324 10.852 49.1724 10.98 48.6924 11.236C48.2124 11.4813 47.839 11.8387 47.5724 12.308C47.3164 12.7667 47.1884 13.3213 47.1884 13.972C47.1884 14.612 47.3164 15.1667 47.5724 15.636C47.839 16.1053 48.2124 16.468 48.6924 16.724C49.1724 16.9693 49.7324 17.092 50.3724 17.092C51.183 17.092 51.871 16.8947 52.4364 16.5C53.0017 16.1053 53.3537 15.5827 53.4924 14.932H55.5884ZM58.4536 9.444H67.3656V18.5H65.2856V10.084L66.2456 11.044H59.4936L60.3896 10.308C60.443 10.9693 60.4856 11.5987 60.5176 12.196C60.5603 12.7827 60.5816 13.3107 60.5816 13.78C60.5816 15.4867 60.3416 16.7293 59.8616 17.508C59.3816 18.2867 58.6083 18.676 57.5416 18.676C57.2536 18.676 56.9763 18.644 56.7096 18.58C56.443 18.516 56.187 18.4147 55.9416 18.276V16.724C56.1336 16.7987 56.3203 16.8573 56.5016 16.9C56.6936 16.9427 56.8696 16.964 57.0296 16.964C57.6163 16.964 58.0376 16.692 58.2936 16.148C58.5603 15.604 58.6936 14.7187 58.6936 13.492C58.6936 12.9587 58.6723 12.3507 58.6296 11.668C58.5976 10.9853 58.539 10.244 58.4536 9.444ZM71.7488 21.364C71.2154 21.364 70.7301 21.2947 70.2928 21.156C69.8661 21.028 69.4661 20.8467 69.0928 20.612V19.028C69.4981 19.284 69.8821 19.4707 70.2448 19.588C70.6181 19.7053 71.0341 19.764 71.4928 19.764C71.9301 19.764 72.3194 19.6627 72.6608 19.46C73.0021 19.268 73.2848 18.9267 73.5088 18.436L77.5888 9.444H79.7968L75.1088 19.14C74.8528 19.6733 74.5488 20.1 74.1968 20.42C73.8554 20.7507 73.4768 20.9907 73.0608 21.14C72.6554 21.2893 72.2181 21.364 71.7488 21.364ZM72.7888 18.212L68.6288 9.444H70.9168L74.8528 18.212H72.7888ZM88.1623 9.444V11.076H82.1303L83.0903 10.116V18.5H81.0103V9.444H88.1623ZM89.479 18.5V9.444H91.527V17.46L90.903 17.316L97.095 9.444H99.783V18.5H97.735V10.372L98.375 10.532L92.103 18.5H89.479Z" fill="#2C3041"/>
<path d="M166.364 17.168C165.38 17.168 164.532 16.976 163.82 16.592C163.108 16.2 162.56 15.656 162.176 14.96C161.792 14.256 161.6 13.436 161.6 12.5C161.6 11.564 161.792 10.748 162.176 10.052C162.56 9.348 163.108 8.804 163.82 8.42C164.532 8.028 165.38 7.832 166.364 7.832C167.348 7.832 168.192 8.028 168.896 8.42C169.608 8.804 170.156 9.348 170.54 10.052C170.924 10.748 171.116 11.564 171.116 12.5C171.116 13.436 170.924 14.256 170.54 14.96C170.156 15.656 169.608 16.2 168.896 16.592C168.192 16.976 167.348 17.168 166.364 17.168ZM166.364 15.86C167.364 15.86 168.14 15.568 168.692 14.984C169.244 14.392 169.52 13.564 169.52 12.5C169.52 11.436 169.244 10.612 168.692 10.028C168.14 9.436 167.364 9.14 166.364 9.14C165.364 9.14 164.584 9.436 164.024 10.028C163.472 10.612 163.196 11.436 163.196 12.5C163.196 13.564 163.472 14.392 164.024 14.984C164.584 15.568 165.364 15.86 166.364 15.86ZM172.814 17.096C172.63 17.096 172.462 17.052 172.31 16.964C172.166 16.876 172.05 16.76 171.962 16.616C171.874 16.464 171.83 16.296 171.83 16.112C171.83 15.928 171.874 15.764 171.962 15.62C172.05 15.468 172.166 15.348 172.31 15.26C172.462 15.172 172.63 15.128 172.814 15.128C172.998 15.128 173.162 15.172 173.306 15.26C173.458 15.348 173.578 15.468 173.666 15.62C173.754 15.764 173.798 15.928 173.798 16.112C173.798 16.296 173.754 16.464 173.666 16.616C173.578 16.76 173.458 16.876 173.306 16.964C173.162 17.052 172.998 17.096 172.814 17.096ZM177.819 8V17H176.235V8.48L177.099 9.248L173.331 9.908V8.648L176.631 8H177.819Z" fill="#C4C6DB"/>
<path d="M194.224 20.964V16.644H196.112L197.36 16.676H206.288L206.784 16.644H209.76V20.964H207.792V18.5H196.192V20.964H194.224ZM196.864 6.5H207.648V17.684H205.536V7.396L206.496 8.356H198L198.912 7.684C198.965 8.27067 199.003 8.852 199.024 9.428C199.045 10.004 199.056 10.548 199.056 11.06C199.056 12.404 198.96 13.5507 198.768 14.5C198.576 15.4493 198.293 16.1747 197.92 16.676C197.547 17.1773 197.093 17.428 196.56 17.428L195.68 16.676C196.16 16.1427 196.512 15.38 196.736 14.388C196.971 13.396 197.088 12.148 197.088 10.644C197.088 9.99333 197.067 9.316 197.024 8.612C196.981 7.908 196.928 7.204 196.864 6.5ZM215.987 18.724C214.888 18.724 213.923 18.5267 213.091 18.132C212.27 17.7267 211.624 17.1667 211.155 16.452C210.696 15.7373 210.467 14.9107 210.467 13.972C210.467 13.0227 210.696 12.196 211.155 11.492C211.624 10.7773 212.27 10.2227 213.091 9.828C213.923 9.42267 214.888 9.22 215.987 9.22C217.086 9.22 218.046 9.42267 218.867 9.828C219.699 10.2227 220.344 10.7773 220.803 11.492C221.272 12.196 221.507 13.0227 221.507 13.972C221.507 14.9107 221.272 15.7373 220.803 16.452C220.344 17.1667 219.699 17.7267 218.867 18.132C218.046 18.5267 217.086 18.724 215.987 18.724ZM215.987 17.092C216.691 17.092 217.294 16.964 217.795 16.708C218.307 16.452 218.702 16.0947 218.979 15.636C219.256 15.1667 219.395 14.612 219.395 13.972C219.395 13.332 219.256 12.7827 218.979 12.324C218.702 11.8547 218.307 11.492 217.795 11.236C217.294 10.98 216.691 10.852 215.987 10.852C215.294 10.852 214.691 10.98 214.179 11.236C213.667 11.492 213.272 11.8547 212.995 12.324C212.718 12.7827 212.579 13.332 212.579 13.972C212.579 14.612 212.718 15.1667 212.995 15.636C213.272 16.0947 213.667 16.452 214.179 16.708C214.691 16.964 215.294 17.092 215.987 17.092ZM223.198 18.5V9.444H225.278V16.74L224.654 16.516L230.43 9.444H232.798L225.118 18.5H223.198ZM230.654 18.5L227.838 14.02L229.294 12.708L233.086 18.5H230.654ZM236.296 21.364C235.762 21.364 235.277 21.2947 234.84 21.156C234.413 21.028 234.013 20.8467 233.64 20.612V19.028C234.045 19.284 234.429 19.4707 234.792 19.588C235.165 19.7053 235.581 19.764 236.04 19.764C236.477 19.764 236.866 19.6627 237.208 19.46C237.549 19.268 237.832 18.9267 238.056 18.436L242.136 9.444H244.344L239.656 19.14C239.4 19.6733 239.096 20.1 238.744 20.42C238.402 20.7507 238.024 20.9907 237.608 21.14C237.202 21.2893 236.765 21.364 236.296 21.364ZM237.336 18.212L233.176 9.444H235.464L239.4 18.212H237.336ZM245.557 18.5V9.444H248.645L252.453 17.508H251.637L255.413 9.444H258.501V18.5H256.549V10.132H257.093L253.045 18.5H251.013L246.965 10.164L247.509 10.148V18.5H245.557ZM265.657 18.724C264.601 18.724 263.663 18.5267 262.841 18.132C262.02 17.7267 261.375 17.1667 260.905 16.452C260.436 15.7373 260.201 14.9053 260.201 13.956C260.201 13.0173 260.42 12.196 260.857 11.492C261.305 10.7773 261.919 10.2227 262.697 9.828C263.487 9.42267 264.388 9.22 265.401 9.22C266.415 9.22 267.289 9.44933 268.025 9.908C268.772 10.356 269.348 10.9907 269.753 11.812C270.159 12.6333 270.361 13.5987 270.361 14.708H261.833V13.124H269.321L268.281 13.716C268.249 13.1187 268.105 12.6067 267.849 12.18C267.604 11.7533 267.268 11.428 266.841 11.204C266.425 10.9693 265.929 10.852 265.353 10.852C264.745 10.852 264.212 10.9747 263.753 11.22C263.305 11.4653 262.953 11.812 262.697 12.26C262.441 12.6973 262.313 13.22 262.313 13.828C262.313 14.5 262.463 15.0813 262.761 15.572C263.071 16.0627 263.503 16.4413 264.057 16.708C264.623 16.964 265.289 17.092 266.057 17.092C266.751 17.092 267.46 16.9853 268.185 16.772C268.911 16.548 269.551 16.2387 270.105 15.844V17.348C269.551 17.7747 268.873 18.1107 268.073 18.356C267.284 18.6013 266.479 18.724 265.657 18.724ZM272.073 9.444H274.137V18.5H272.073V9.444ZM279.769 9.444H281.833V18.5H279.769V9.444ZM273.241 13.108H280.633V14.708H273.241V13.108ZM286.906 10.164H288.986V18.5H286.906V10.164ZM283.146 9.444H292.746V11.076H283.146V9.444ZM302.13 18.5L301.778 15.14L302.194 13.972L301.778 12.82L302.13 9.444H304.274L303.794 13.972L304.274 18.5H302.13ZM302.77 13.972C302.567 14.9213 302.231 15.7533 301.762 16.468C301.293 17.1827 300.711 17.7373 300.018 18.132C299.335 18.5267 298.573 18.724 297.73 18.724C296.845 18.724 296.061 18.5267 295.378 18.132C294.695 17.7267 294.162 17.1667 293.778 16.452C293.394 15.7373 293.202 14.9107 293.202 13.972C293.202 13.0227 293.394 12.196 293.778 11.492C294.162 10.7773 294.695 10.2227 295.378 9.828C296.061 9.42267 296.845 9.22 297.73 9.22C298.573 9.22 299.335 9.41733 300.018 9.812C300.711 10.2067 301.293 10.7613 301.762 11.476C302.242 12.18 302.578 13.012 302.77 13.972ZM295.314 13.972C295.314 14.58 295.437 15.1187 295.682 15.588C295.938 16.0467 296.285 16.4093 296.722 16.676C297.159 16.932 297.661 17.06 298.226 17.06C298.802 17.06 299.335 16.932 299.826 16.676C300.317 16.4093 300.749 16.0467 301.122 15.588C301.506 15.1187 301.81 14.58 302.034 13.972C301.81 13.364 301.506 12.8307 301.122 12.372C300.749 11.9027 300.317 11.54 299.826 11.284C299.335 11.0173 298.802 10.884 298.226 10.884C297.661 10.884 297.159 11.0173 296.722 11.284C296.285 11.54 295.938 11.9027 295.682 12.372C295.437 12.8307 295.314 13.364 295.314 13.972ZM315.844 9.444V17.348L315.492 16.9H317.524V20.788H315.716V18.132L316.068 18.5H306.276V9.444H308.356V17.348L308.02 16.9H314.068L313.764 17.348V9.444H315.844ZM319.026 18.5V9.444H321.074V17.46L320.45 17.316L326.642 9.444H329.33V18.5H327.282V10.372L327.922 10.532L321.65 18.5H319.026ZM339.078 13.716V15.172H334.502L334.47 15.124C333.808 15.124 333.227 15.0067 332.726 14.772C332.224 14.5373 331.835 14.2067 331.558 13.78C331.28 13.3533 331.142 12.8573 331.142 12.292C331.142 11.7267 331.28 11.2307 331.558 10.804C331.835 10.3773 332.224 10.0467 332.726 9.812C333.227 9.56667 333.808 9.444 334.47 9.444H340.55V18.5H338.47V10.036L339.158 10.932H334.918C334.395 10.932 333.984 11.0547 333.686 11.3C333.398 11.5453 333.254 11.8813 333.254 12.308C333.254 12.7347 333.398 13.076 333.686 13.332C333.984 13.588 334.395 13.716 334.918 13.716H339.078ZM336.726 14.26L333.366 18.5H330.95L334.406 14.26H336.726Z" fill="#2C3041"/>
<path d="M407.364 17.168C406.38 17.168 405.532 16.976 404.82 16.592C404.108 16.2 403.56 15.656 403.176 14.96C402.792 14.256 402.6 13.436 402.6 12.5C402.6 11.564 402.792 10.748 403.176 10.052C403.56 9.348 404.108 8.804 404.82 8.42C405.532 8.028 406.38 7.832 407.364 7.832C408.348 7.832 409.192 8.028 409.896 8.42C410.608 8.804 411.156 9.348 411.54 10.052C411.924 10.748 412.116 11.564 412.116 12.5C412.116 13.436 411.924 14.256 411.54 14.96C411.156 15.656 410.608 16.2 409.896 16.592C409.192 16.976 408.348 17.168 407.364 17.168ZM407.364 15.86C408.364 15.86 409.14 15.568 409.692 14.984C410.244 14.392 410.52 13.564 410.52 12.5C410.52 11.436 410.244 10.612 409.692 10.028C409.14 9.436 408.364 9.14 407.364 9.14C406.364 9.14 405.584 9.436 405.024 10.028C404.472 10.612 404.196 11.436 404.196 12.5C404.196 13.564 404.472 14.392 405.024 14.984C405.584 15.568 406.364 15.86 407.364 15.86ZM413.814 17.096C413.63 17.096 413.462 17.052 413.31 16.964C413.166 16.876 413.05 16.76 412.962 16.616C412.874 16.464 412.83 16.296 412.83 16.112C412.83 15.928 412.874 15.764 412.962 15.62C413.05 15.468 413.166 15.348 413.31 15.26C413.462 15.172 413.63 15.128 413.814 15.128C413.998 15.128 414.162 15.172 414.306 15.26C414.458 15.348 414.578 15.468 414.666 15.62C414.754 15.764 414.798 15.928 414.798 16.112C414.798 16.296 414.754 16.464 414.666 16.616C414.578 16.76 414.458 16.876 414.306 16.964C414.162 17.052 413.998 17.096 413.814 17.096ZM418.819 8V17H417.235V8.48L418.099 9.248L414.331 9.908V8.648L417.631 8H418.819Z" fill="#C4C6DB"/>
<path d="M442.696 6.5C443.592 6.5 444.365 6.66 445.016 6.98C445.677 7.3 446.184 7.748 446.536 8.324C446.899 8.88933 447.08 9.54533 447.08 10.292C447.08 11.0387 446.899 11.7 446.536 12.276C446.184 12.8413 445.677 13.284 445.016 13.604C444.365 13.924 443.592 14.084 442.696 14.084H437.304V12.26H442.616C443.341 12.26 443.907 12.084 444.312 11.732C444.728 11.38 444.936 10.9 444.936 10.292C444.936 9.684 444.728 9.204 444.312 8.852C443.907 8.5 443.341 8.324 442.616 8.324H437.512L438.456 7.268V18.5H436.344V6.5H442.696ZM453.282 18.724C452.226 18.724 451.288 18.5267 450.466 18.132C449.645 17.7267 449 17.1667 448.53 16.452C448.061 15.7373 447.826 14.9053 447.826 13.956C447.826 13.0173 448.045 12.196 448.482 11.492C448.93 10.7773 449.544 10.2227 450.322 9.828C451.112 9.42267 452.013 9.22 453.026 9.22C454.04 9.22 454.914 9.44933 455.65 9.908C456.397 10.356 456.973 10.9907 457.378 11.812C457.784 12.6333 457.986 13.5987 457.986 14.708H449.458V13.124H456.946L455.906 13.716C455.874 13.1187 455.73 12.6067 455.474 12.18C455.229 11.7533 454.893 11.428 454.466 11.204C454.05 10.9693 453.554 10.852 452.978 10.852C452.37 10.852 451.837 10.9747 451.378 11.22C450.93 11.4653 450.578 11.812 450.322 12.26C450.066 12.6973 449.938 13.22 449.938 13.828C449.938 14.5 450.088 15.0813 450.386 15.572C450.696 16.0627 451.128 16.4413 451.682 16.708C452.248 16.964 452.914 17.092 453.682 17.092C454.376 17.092 455.085 16.9853 455.81 16.772C456.536 16.548 457.176 16.2387 457.73 15.844V17.348C457.176 17.7747 456.498 18.1107 455.698 18.356C454.909 18.6013 454.104 18.724 453.282 18.724ZM468.146 18.5L467.794 15.14L468.21 13.972L467.794 12.82L468.146 9.444H470.29L469.81 13.972L470.29 18.5H468.146ZM468.786 13.972C468.583 14.9213 468.247 15.7533 467.778 16.468C467.308 17.1827 466.727 17.7373 466.034 18.132C465.351 18.5267 464.588 18.724 463.746 18.724C462.86 18.724 462.076 18.5267 461.394 18.132C460.711 17.7267 460.178 17.1667 459.794 16.452C459.41 15.7373 459.218 14.9107 459.218 13.972C459.218 13.0227 459.41 12.196 459.794 11.492C460.178 10.7773 460.711 10.2227 461.394 9.828C462.076 9.42267 462.86 9.22 463.746 9.22C464.588 9.22 465.351 9.41733 466.034 9.812C466.727 10.2067 467.308 10.7613 467.778 11.476C468.258 12.18 468.594 13.012 468.786 13.972ZM461.33 13.972C461.33 14.58 461.452 15.1187 461.698 15.588C461.954 16.0467 462.3 16.4093 462.738 16.676C463.175 16.932 463.676 17.06 464.242 17.06C464.818 17.06 465.351 16.932 465.842 16.676C466.332 16.4093 466.764 16.0467 467.138 15.588C467.522 15.1187 467.826 14.58 468.05 13.972C467.826 13.364 467.522 12.8307 467.138 12.372C466.764 11.9027 466.332 11.54 465.842 11.284C465.351 11.0173 464.818 10.884 464.242 10.884C463.676 10.884 463.175 11.0173 462.738 11.284C462.3 11.54 461.954 11.9027 461.698 12.372C461.452 12.8307 461.33 13.364 461.33 13.972ZM473.876 9.444H482.788V18.5H480.708V10.084L481.668 11.044H474.916L475.812 10.308C475.865 10.9693 475.908 11.5987 475.94 12.196C475.982 12.7827 476.004 13.3107 476.004 13.78C476.004 15.4867 475.764 16.7293 475.284 17.508C474.804 18.2867 474.03 18.676 472.964 18.676C472.676 18.676 472.398 18.644 472.132 18.58C471.865 18.516 471.609 18.4147 471.364 18.276V16.724C471.556 16.7987 471.742 16.8573 471.924 16.9C472.116 16.9427 472.292 16.964 472.452 16.964C473.038 16.964 473.46 16.692 473.716 16.148C473.982 15.604 474.116 14.7187 474.116 13.492C474.116 12.9587 474.094 12.3507 474.052 11.668C474.02 10.9853 473.961 10.244 473.876 9.444ZM484.995 18.5V9.444H487.043V17.46L486.419 17.316L492.611 9.444H495.299V18.5H493.251V10.372L493.891 10.532L487.619 18.5H484.995ZM501.734 18.724C500.774 18.724 499.932 18.596 499.206 18.34C498.492 18.084 497.926 17.716 497.51 17.236C497.105 16.756 496.881 16.1853 496.838 15.524H498.854C498.94 16.0467 499.228 16.4467 499.718 16.724C500.22 16.9907 500.892 17.124 501.734 17.124C502.545 17.124 503.18 17.0173 503.638 16.804C504.097 16.58 504.326 16.2387 504.326 15.78C504.326 15.4067 504.134 15.1293 503.75 14.948C503.377 14.7667 502.78 14.676 501.958 14.676H500.166V13.236H501.91C502.646 13.236 503.19 13.124 503.542 12.9C503.905 12.676 504.086 12.3987 504.086 12.068C504.086 11.6627 503.873 11.3533 503.446 11.14C503.02 10.9267 502.46 10.82 501.766 10.82C500.998 10.82 500.374 10.9427 499.894 11.188C499.414 11.4333 499.132 11.8013 499.046 12.292H497.03C497.084 11.716 497.302 11.1987 497.686 10.74C498.081 10.2707 498.63 9.90267 499.334 9.636C500.038 9.35867 500.876 9.22 501.846 9.22C502.732 9.22 503.5 9.332 504.15 9.556C504.801 9.78 505.302 10.0893 505.654 10.484C506.017 10.868 506.198 11.3107 506.198 11.812C506.198 12.2173 506.07 12.5907 505.814 12.932C505.569 13.2733 505.18 13.5453 504.646 13.748C504.124 13.9507 503.446 14.052 502.614 14.052V13.78C503.83 13.7373 504.774 13.9027 505.446 14.276C506.118 14.6387 506.454 15.1827 506.454 15.908C506.454 16.452 506.268 16.9373 505.894 17.364C505.532 17.7907 504.998 18.1267 504.294 18.372C503.59 18.6067 502.737 18.724 501.734 18.724ZM513.19 18.724C512.091 18.724 511.126 18.5267 510.294 18.132C509.473 17.7267 508.827 17.1667 508.358 16.452C507.899 15.7373 507.67 14.9107 507.67 13.972C507.67 13.0227 507.899 12.196 508.358 11.492C508.827 10.7773 509.473 10.2227 510.294 9.828C511.126 9.42267 512.091 9.22 513.19 9.22C514.289 9.22 515.249 9.42267 516.07 9.828C516.902 10.2227 517.547 10.7773 518.006 11.492C518.475 12.196 518.71 13.0227 518.71 13.972C518.71 14.9107 518.475 15.7373 518.006 16.452C517.547 17.1667 516.902 17.7267 516.07 18.132C515.249 18.5267 514.289 18.724 513.19 18.724ZM513.19 17.092C513.894 17.092 514.497 16.964 514.998 16.708C515.51 16.452 515.905 16.0947 516.182 15.636C516.459 15.1667 516.598 14.612 516.598 13.972C516.598 13.332 516.459 12.7827 516.182 12.324C515.905 11.8547 515.51 11.492 514.998 11.236C514.497 10.98 513.894 10.852 513.19 10.852C512.497 10.852 511.894 10.98 511.382 11.236C510.87 11.492 510.475 11.8547 510.198 12.324C509.921 12.7827 509.782 13.332 509.782 13.972C509.782 14.612 509.921 15.1667 510.198 15.636C510.475 16.0947 510.87 16.452 511.382 16.708C511.894 16.964 512.497 17.092 513.19 17.092ZM520.193 18.5L520.657 13.972L520.193 9.444H526.753C527.628 9.444 528.31 9.64667 528.801 10.052C529.302 10.4573 529.553 11.0173 529.553 11.732C529.553 12.3933 529.302 12.9267 528.801 13.332C528.31 13.7267 527.622 13.9613 526.737 14.036L526.897 13.652C527.942 13.6733 528.742 13.8867 529.297 14.292C529.852 14.6973 530.129 15.268 530.129 16.004C530.129 16.7827 529.846 17.396 529.281 17.844C528.726 18.2813 527.953 18.5 526.961 18.5H520.193ZM522.209 17.988L521.409 17.06H526.433C526.998 17.06 527.404 16.9533 527.649 16.74C527.905 16.516 528.033 16.2067 528.033 15.812C528.033 15.46 527.889 15.1667 527.601 14.932C527.324 14.6973 526.854 14.58 526.193 14.58H521.857V13.236H525.889C526.433 13.236 526.828 13.1293 527.073 12.916C527.329 12.692 527.457 12.404 527.457 12.052C527.457 11.7107 527.345 11.4333 527.121 11.22C526.908 10.996 526.545 10.884 526.033 10.884H521.425L522.209 9.972L522.657 13.972L522.209 17.988ZM540.255 18.5L539.903 15.14L540.319 13.972L539.903 12.82L540.255 9.444H542.399L541.919 13.972L542.399 18.5H540.255ZM540.895 13.972C540.692 14.9213 540.356 15.7533 539.887 16.468C539.418 17.1827 538.836 17.7373 538.143 18.132C537.46 18.5267 536.698 18.724 535.855 18.724C534.97 18.724 534.186 18.5267 533.503 18.132C532.82 17.7267 532.287 17.1667 531.903 16.452C531.519 15.7373 531.327 14.9107 531.327 13.972C531.327 13.0227 531.519 12.196 531.903 11.492C532.287 10.7773 532.82 10.2227 533.503 9.828C534.186 9.42267 534.97 9.22 535.855 9.22C536.698 9.22 537.46 9.41733 538.143 9.812C538.836 10.2067 539.418 10.7613 539.887 11.476C540.367 12.18 540.703 13.012 540.895 13.972ZM533.439 13.972C533.439 14.58 533.562 15.1187 533.807 15.588C534.063 16.0467 534.41 16.4093 534.847 16.676C535.284 16.932 535.786 17.06 536.351 17.06C536.927 17.06 537.46 16.932 537.951 16.676C538.442 16.4093 538.874 16.0467 539.247 15.588C539.631 15.1187 539.935 14.58 540.159 13.972C539.935 13.364 539.631 12.8307 539.247 12.372C538.874 11.9027 538.442 11.54 537.951 11.284C537.46 11.0173 536.927 10.884 536.351 10.884C535.786 10.884 535.284 11.0173 534.847 11.284C534.41 11.54 534.063 11.9027 533.807 12.372C533.562 12.8307 533.439 13.364 533.439 13.972ZM544.401 9.444H546.465V18.5H544.401V9.444ZM552.097 9.444H554.161V18.5H552.097V9.444ZM545.569 13.108H552.961V14.708H545.569V13.108ZM556.37 9.444H558.434V18.5H556.37V9.444ZM564.066 9.444H566.13V18.5H564.066V9.444ZM557.538 13.108H564.93V14.708H557.538V13.108ZM578.514 9.444H580.594V18.5H578.514V9.444ZM568.338 18.5V9.444H570.418V17.924L569.682 16.964H573.554C574.12 16.964 574.562 16.8253 574.882 16.548C575.202 16.26 575.362 15.8707 575.362 15.38C575.362 14.8787 575.202 14.4893 574.882 14.212C574.562 13.924 574.12 13.78 573.554 13.78H569.746V12.292H573.826C574.562 12.292 575.202 12.4253 575.746 12.692C576.29 12.948 576.712 13.3107 577.01 13.78C577.32 14.2387 577.474 14.7773 577.474 15.396C577.474 16.0147 577.32 16.5587 577.01 17.028C576.712 17.4973 576.29 17.86 575.746 18.116C575.202 18.372 574.568 18.5 573.842 18.5H568.338ZM587.751 18.724C586.695 18.724 585.756 18.5267 584.935 18.132C584.114 17.7267 583.468 17.1667 582.999 16.452C582.53 15.7373 582.295 14.9053 582.295 13.956C582.295 13.0173 582.514 12.196 582.951 11.492C583.399 10.7773 584.012 10.2227 584.791 9.828C585.58 9.42267 586.482 9.22 587.495 9.22C588.508 9.22 589.383 9.44933 590.119 9.908C590.866 10.356 591.442 10.9907 591.847 11.812C592.252 12.6333 592.455 13.5987 592.455 14.708H583.927V13.124H591.415L590.375 13.716C590.343 13.1187 590.199 12.6067 589.943 12.18C589.698 11.7533 589.362 11.428 588.935 11.204C588.519 10.9693 588.023 10.852 587.447 10.852C586.839 10.852 586.306 10.9747 585.847 11.22C585.399 11.4653 585.047 11.812 584.791 12.26C584.535 12.6973 584.407 13.22 584.407 13.828C584.407 14.5 584.556 15.0813 584.855 15.572C585.164 16.0627 585.596 16.4413 586.151 16.708C586.716 16.964 587.383 17.092 588.151 17.092C588.844 17.092 589.554 16.9853 590.279 16.772C591.004 16.548 591.644 16.2387 592.199 15.844V17.348C591.644 17.7747 590.967 18.1107 590.167 18.356C589.378 18.6013 588.572 18.724 587.751 18.724ZM608.097 9.444V18.5H606.017V10.1L606.977 11.044H599.521L600.481 10.1V18.5H598.401V9.444H608.097ZM610.307 9.444H612.387V12.596L612.291 12.916V14.74L612.387 15.3V21.14H610.307V9.444ZM611.587 13.972C611.79 13.012 612.126 12.18 612.595 11.476C613.064 10.7613 613.64 10.2067 614.323 9.812C615.016 9.41733 615.784 9.22 616.627 9.22C617.512 9.22 618.296 9.42267 618.979 9.828C619.662 10.2227 620.195 10.7773 620.579 11.492C620.963 12.196 621.155 13.0227 621.155 13.972C621.155 14.9107 620.963 15.7373 620.579 16.452C620.195 17.1667 619.662 17.7267 618.979 18.132C618.296 18.5267 617.512 18.724 616.627 18.724C615.784 18.724 615.022 18.5267 614.339 18.132C613.656 17.7373 613.075 17.1827 612.595 16.468C612.126 15.7533 611.79 14.9213 611.587 13.972ZM619.043 13.972C619.043 13.364 618.915 12.8307 618.659 12.372C618.414 11.9027 618.072 11.54 617.635 11.284C617.198 11.0173 616.696 10.884 616.131 10.884C615.566 10.884 615.032 11.0173 614.531 11.284C614.04 11.54 613.608 11.9027 613.235 12.372C612.862 12.8307 612.558 13.364 612.323 13.972C612.558 14.58 612.862 15.1187 613.235 15.588C613.608 16.0467 614.04 16.4093 614.531 16.676C615.032 16.932 615.566 17.06 616.131 17.06C616.696 17.06 617.198 16.932 617.635 16.676C618.072 16.4093 618.414 16.0467 618.659 15.588C618.915 15.1187 619.043 14.58 619.043 13.972ZM627.893 18.724C626.795 18.724 625.829 18.5267 624.997 18.132C624.176 17.7267 623.531 17.1667 623.061 16.452C622.603 15.7373 622.373 14.9107 622.373 13.972C622.373 13.0227 622.603 12.196 623.061 11.492C623.531 10.7773 624.176 10.2227 624.997 9.828C625.829 9.42267 626.795 9.22 627.893 9.22C628.992 9.22 629.952 9.42267 630.773 9.828C631.605 10.2227 632.251 10.7773 632.709 11.492C633.179 12.196 633.413 13.0227 633.413 13.972C633.413 14.9107 633.179 15.7373 632.709 16.452C632.251 17.1667 631.605 17.7267 630.773 18.132C629.952 18.5267 628.992 18.724 627.893 18.724ZM627.893 17.092C628.597 17.092 629.2 16.964 629.701 16.708C630.213 16.452 630.608 16.0947 630.885 15.636C631.163 15.1667 631.301 14.612 631.301 13.972C631.301 13.332 631.163 12.7827 630.885 12.324C630.608 11.8547 630.213 11.492 629.701 11.236C629.2 10.98 628.597 10.852 627.893 10.852C627.2 10.852 626.597 10.98 626.085 11.236C625.573 11.492 625.179 11.8547 624.901 12.324C624.624 12.7827 624.485 13.332 624.485 13.972C624.485 14.612 624.624 15.1667 624.901 15.636C625.179 16.0947 625.573 16.452 626.085 16.708C626.597 16.964 627.2 17.092 627.893 17.092ZM640.048 18.724C638.992 18.724 638.053 18.5267 637.232 18.132C636.411 17.7267 635.765 17.1667 635.296 16.452C634.827 15.7373 634.592 14.9053 634.592 13.956C634.592 13.0173 634.811 12.196 635.248 11.492C635.696 10.7773 636.309 10.2227 637.088 9.828C637.877 9.42267 638.779 9.22 639.792 9.22C640.805 9.22 641.68 9.44933 642.416 9.908C643.163 10.356 643.739 10.9907 644.144 11.812C644.549 12.6333 644.752 13.5987 644.752 14.708H636.224V13.124H643.712L642.672 13.716C642.64 13.1187 642.496 12.6067 642.24 12.18C641.995 11.7533 641.659 11.428 641.232 11.204C640.816 10.9693 640.32 10.852 639.744 10.852C639.136 10.852 638.603 10.9747 638.144 11.22C637.696 11.4653 637.344 11.812 637.088 12.26C636.832 12.6973 636.704 13.22 636.704 13.828C636.704 14.5 636.853 15.0813 637.152 15.572C637.461 16.0627 637.893 16.4413 638.448 16.708C639.013 16.964 639.68 17.092 640.448 17.092C641.141 17.092 641.851 16.9853 642.576 16.772C643.301 16.548 643.941 16.2387 644.496 15.844V17.348C643.941 17.7747 643.264 18.1107 642.464 18.356C641.675 18.6013 640.869 18.724 640.048 18.724ZM646.463 18.5V9.444H648.543V16.74L647.919 16.516L653.695 9.444H656.063L648.383 18.5H646.463ZM653.919 18.5L651.103 14.02L652.559 12.708L656.351 18.5H653.919ZM660.249 10.164H662.329V18.5H660.249V10.164ZM656.489 9.444H666.089V11.076H656.489V9.444ZM677.577 9.444H679.657V18.5H677.577V9.444ZM667.401 18.5V9.444H669.481V17.924L668.745 16.964H672.617C673.182 16.964 673.625 16.8253 673.945 16.548C674.265 16.26 674.425 15.8707 674.425 15.38C674.425 14.8787 674.265 14.4893 673.945 14.212C673.625 13.924 673.182 13.78 672.617 13.78H668.809V12.292H672.889C673.625 12.292 674.265 12.4253 674.809 12.692C675.353 12.948 675.774 13.3107 676.073 13.78C676.382 14.2387 676.537 14.7773 676.537 15.396C676.537 16.0147 676.382 16.5587 676.073 17.028C675.774 17.4973 675.353 17.86 674.809 18.116C674.265 18.372 673.63 18.5 672.905 18.5H667.401Z" fill="#2C3041"/>
<path d="M746.364 17.168C745.38 17.168 744.532 16.976 743.82 16.592C743.108 16.2 742.56 15.656 742.176 14.96C741.792 14.256 741.6 13.436 741.6 12.5C741.6 11.564 741.792 10.748 742.176 10.052C742.56 9.348 743.108 8.804 743.82 8.42C744.532 8.028 745.38 7.832 746.364 7.832C747.348 7.832 748.192 8.028 748.896 8.42C749.608 8.804 750.156 9.348 750.54 10.052C750.924 10.748 751.116 11.564 751.116 12.5C751.116 13.436 750.924 14.256 750.54 14.96C750.156 15.656 749.608 16.2 748.896 16.592C748.192 16.976 747.348 17.168 746.364 17.168ZM746.364 15.86C747.364 15.86 748.14 15.568 748.692 14.984C749.244 14.392 749.52 13.564 749.52 12.5C749.52 11.436 749.244 10.612 748.692 10.028C748.14 9.436 747.364 9.14 746.364 9.14C745.364 9.14 744.584 9.436 744.024 10.028C743.472 10.612 743.196 11.436 743.196 12.5C743.196 13.564 743.472 14.392 744.024 14.984C744.584 15.568 745.364 15.86 746.364 15.86ZM752.814 17.096C752.63 17.096 752.462 17.052 752.31 16.964C752.166 16.876 752.05 16.76 751.962 16.616C751.874 16.464 751.83 16.296 751.83 16.112C751.83 15.928 751.874 15.764 751.962 15.62C752.05 15.468 752.166 15.348 752.31 15.26C752.462 15.172 752.63 15.128 752.814 15.128C752.998 15.128 753.162 15.172 753.306 15.26C753.458 15.348 753.578 15.468 753.666 15.62C753.754 15.764 753.798 15.928 753.798 16.112C753.798 16.296 753.754 16.464 753.666 16.616C753.578 16.76 753.458 16.876 753.306 16.964C753.162 17.052 752.998 17.096 752.814 17.096ZM757.819 8V17H756.235V8.48L757.099 9.248L753.331 9.908V8.648L756.631 8H757.819Z" fill="#C4C6DB"/>
<path d="M787.152 6.5V18.5H785.056V7.412L786.016 8.372H776.496L777.456 7.412V18.5H775.344V6.5H787.152ZM797.943 18.5L797.591 15.14L798.007 13.972L797.591 12.82L797.943 9.444H800.087L799.607 13.972L800.087 18.5H797.943ZM798.583 13.972C798.38 14.9213 798.044 15.7533 797.575 16.468C797.105 17.1827 796.524 17.7373 795.831 18.132C795.148 18.5267 794.385 18.724 793.543 18.724C792.657 18.724 791.873 18.5267 791.191 18.132C790.508 17.7267 789.975 17.1667 789.591 16.452C789.207 15.7373 789.015 14.9107 789.015 13.972C789.015 13.0227 789.207 12.196 789.591 11.492C789.975 10.7773 790.508 10.2227 791.191 9.828C791.873 9.42267 792.657 9.22 793.543 9.22C794.385 9.22 795.148 9.41733 795.831 9.812C796.524 10.2067 797.105 10.7613 797.575 11.476C798.055 12.18 798.391 13.012 798.583 13.972ZM791.127 13.972C791.127 14.58 791.249 15.1187 791.495 15.588C791.751 16.0467 792.097 16.4093 792.535 16.676C792.972 16.932 793.473 17.06 794.039 17.06C794.615 17.06 795.148 16.932 795.639 16.676C796.129 16.4093 796.561 16.0467 796.935 15.588C797.319 15.1187 797.623 14.58 797.847 13.972C797.623 13.364 797.319 12.8307 796.935 12.372C796.561 11.9027 796.129 11.54 795.639 11.284C795.148 11.0173 794.615 10.884 794.039 10.884C793.473 10.884 792.972 11.0173 792.535 11.284C792.097 11.54 791.751 11.9027 791.495 12.372C791.249 12.8307 791.127 13.364 791.127 13.972ZM802.088 9.444H804.168V12.596L804.072 12.916V14.74L804.168 15.3V21.14H802.088V9.444ZM803.368 13.972C803.571 13.012 803.907 12.18 804.376 11.476C804.846 10.7613 805.422 10.2067 806.104 9.812C806.798 9.41733 807.566 9.22 808.408 9.22C809.294 9.22 810.078 9.42267 810.76 9.828C811.443 10.2227 811.976 10.7773 812.36 11.492C812.744 12.196 812.936 13.0227 812.936 13.972C812.936 14.9107 812.744 15.7373 812.36 16.452C811.976 17.1667 811.443 17.7267 810.76 18.132C810.078 18.5267 809.294 18.724 808.408 18.724C807.566 18.724 806.803 18.5267 806.12 18.132C805.438 17.7373 804.856 17.1827 804.376 16.468C803.907 15.7533 803.571 14.9213 803.368 13.972ZM810.824 13.972C810.824 13.364 810.696 12.8307 810.44 12.372C810.195 11.9027 809.854 11.54 809.416 11.284C808.979 11.0173 808.478 10.884 807.912 10.884C807.347 10.884 806.814 11.0173 806.312 11.284C805.822 11.54 805.39 11.9027 805.016 12.372C804.643 12.8307 804.339 13.364 804.104 13.972C804.339 14.58 804.643 15.1187 805.016 15.588C805.39 16.0467 805.822 16.4093 806.312 16.676C806.814 16.932 807.347 17.06 807.912 17.06C808.478 17.06 808.979 16.932 809.416 16.676C809.854 16.4093 810.195 16.0467 810.44 15.588C810.696 15.1187 810.824 14.58 810.824 13.972ZM817.156 10.164H819.236V18.5H817.156V10.164ZM813.396 9.444H822.996V11.076H813.396V9.444ZM824.307 9.444H826.371V18.5H824.307V9.444ZM832.003 9.444H834.067V18.5H832.003V9.444ZM825.475 13.108H832.867V14.708H825.475V13.108ZM841.22 18.724C840.164 18.724 839.225 18.5267 838.404 18.132C837.583 17.7267 836.937 17.1667 836.468 16.452C835.999 15.7373 835.764 14.9053 835.764 13.956C835.764 13.0173 835.983 12.196 836.42 11.492C836.868 10.7773 837.481 10.2227 838.26 9.828C839.049 9.42267 839.951 9.22 840.964 9.22C841.977 9.22 842.852 9.44933 843.588 9.908C844.335 10.356 844.911 10.9907 845.316 11.812C845.721 12.6333 845.924 13.5987 845.924 14.708H837.396V13.124H844.884L843.844 13.716C843.812 13.1187 843.668 12.6067 843.412 12.18C843.167 11.7533 842.831 11.428 842.404 11.204C841.988 10.9693 841.492 10.852 840.916 10.852C840.308 10.852 839.775 10.9747 839.316 11.22C838.868 11.4653 838.516 11.812 838.26 12.26C838.004 12.6973 837.876 13.22 837.876 13.828C837.876 14.5 838.025 15.0813 838.324 15.572C838.633 16.0627 839.065 16.4413 839.62 16.708C840.185 16.964 840.852 17.092 841.62 17.092C842.313 17.092 843.023 16.9853 843.748 16.772C844.473 16.548 845.113 16.2387 845.668 15.844V17.348C845.113 17.7747 844.436 18.1107 843.636 18.356C842.847 18.6013 842.041 18.724 841.22 18.724ZM847.635 9.444H849.715V12.596L849.619 12.916V14.74L849.715 15.3V21.14H847.635V9.444ZM848.915 13.972C849.118 13.012 849.454 12.18 849.923 11.476C850.393 10.7613 850.969 10.2067 851.651 9.812C852.345 9.41733 853.113 9.22 853.955 9.22C854.841 9.22 855.625 9.42267 856.307 9.828C856.99 10.2227 857.523 10.7773 857.907 11.492C858.291 12.196 858.483 13.0227 858.483 13.972C858.483 14.9107 858.291 15.7373 857.907 16.452C857.523 17.1667 856.99 17.7267 856.307 18.132C855.625 18.5267 854.841 18.724 853.955 18.724C853.113 18.724 852.35 18.5267 851.667 18.132C850.985 17.7373 850.403 17.1827 849.923 16.468C849.454 15.7533 849.118 14.9213 848.915 13.972ZM856.371 13.972C856.371 13.364 856.243 12.8307 855.987 12.372C855.742 11.9027 855.401 11.54 854.963 11.284C854.526 11.0173 854.025 10.884 853.459 10.884C852.894 10.884 852.361 11.0173 851.859 11.284C851.369 11.54 850.937 11.9027 850.563 12.372C850.19 12.8307 849.886 13.364 849.651 13.972C849.886 14.58 850.19 15.1187 850.563 15.588C850.937 16.0467 851.369 16.4093 851.859 16.676C852.361 16.932 852.894 17.06 853.459 17.06C854.025 17.06 854.526 16.932 854.963 16.676C855.401 16.4093 855.742 16.0467 855.987 15.588C856.243 15.1187 856.371 14.58 856.371 13.972ZM868.661 18.5L868.309 15.14L868.725 13.972L868.309 12.82L868.661 9.444H870.805L870.325 13.972L870.805 18.5H868.661ZM869.301 13.972C869.099 14.9213 868.763 15.7533 868.293 16.468C867.824 17.1827 867.243 17.7373 866.549 18.132C865.867 18.5267 865.104 18.724 864.261 18.724C863.376 18.724 862.592 18.5267 861.909 18.132C861.227 17.7267 860.693 17.1667 860.309 16.452C859.925 15.7373 859.733 14.9107 859.733 13.972C859.733 13.0227 859.925 12.196 860.309 11.492C860.693 10.7773 861.227 10.2227 861.909 9.828C862.592 9.42267 863.376 9.22 864.261 9.22C865.104 9.22 865.867 9.41733 866.549 9.812C867.243 10.2067 867.824 10.7613 868.293 11.476C868.773 12.18 869.109 13.012 869.301 13.972ZM861.845 13.972C861.845 14.58 861.968 15.1187 862.213 15.588C862.469 16.0467 862.816 16.4093 863.253 16.676C863.691 16.932 864.192 17.06 864.757 17.06C865.333 17.06 865.867 16.932 866.357 16.676C866.848 16.4093 867.28 16.0467 867.653 15.588C868.037 15.1187 868.341 14.58 868.565 13.972C868.341 13.364 868.037 12.8307 867.653 12.372C867.28 11.9027 866.848 11.54 866.357 11.284C865.867 11.0173 865.333 10.884 864.757 10.884C864.192 10.884 863.691 11.0173 863.253 11.284C862.816 11.54 862.469 11.9027 862.213 12.372C861.968 12.8307 861.845 13.364 861.845 13.972ZM872.807 18.5V9.444H875.895L879.703 17.508H878.887L882.663 9.444H885.751V18.5H883.799V10.132H884.343L880.295 18.5H878.263L874.215 10.164L874.759 10.148V18.5H872.807Z" fill="#2C3041"/>
<path d="M952.364 17.168C951.38 17.168 950.532 16.976 949.82 16.592C949.108 16.2 948.56 15.656 948.176 14.96C947.792 14.256 947.6 13.436 947.6 12.5C947.6 11.564 947.792 10.748 948.176 10.052C948.56 9.348 949.108 8.804 949.82 8.42C950.532 8.028 951.38 7.832 952.364 7.832C953.348 7.832 954.192 8.028 954.896 8.42C955.608 8.804 956.156 9.348 956.54 10.052C956.924 10.748 957.116 11.564 957.116 12.5C957.116 13.436 956.924 14.256 956.54 14.96C956.156 15.656 955.608 16.2 954.896 16.592C954.192 16.976 953.348 17.168 952.364 17.168ZM952.364 15.86C953.364 15.86 954.14 15.568 954.692 14.984C955.244 14.392 955.52 13.564 955.52 12.5C955.52 11.436 955.244 10.612 954.692 10.028C954.14 9.436 953.364 9.14 952.364 9.14C951.364 9.14 950.584 9.436 950.024 10.028C949.472 10.612 949.196 11.436 949.196 12.5C949.196 13.564 949.472 14.392 950.024 14.984C950.584 15.568 951.364 15.86 952.364 15.86ZM958.814 17.096C958.63 17.096 958.462 17.052 958.31 16.964C958.166 16.876 958.05 16.76 957.962 16.616C957.874 16.464 957.83 16.296 957.83 16.112C957.83 15.928 957.874 15.764 957.962 15.62C958.05 15.468 958.166 15.348 958.31 15.26C958.462 15.172 958.63 15.128 958.814 15.128C958.998 15.128 959.162 15.172 959.306 15.26C959.458 15.348 959.578 15.468 959.666 15.62C959.754 15.764 959.798 15.928 959.798 16.112C959.798 16.296 959.754 16.464 959.666 16.616C959.578 16.76 959.458 16.876 959.306 16.964C959.162 17.052 958.998 17.096 958.814 17.096ZM963.819 8V17H962.235V8.48L963.099 9.248L959.331 9.908V8.648L962.631 8H963.819Z" fill="#C4C6DB"/>
<path d="M981.344 18.5V6.5H983.456V16.724L982.816 16.324L990.848 6.5H993.136L983.232 18.5H981.344ZM987.056 12.468L988.544 11.012L993.312 18.5H990.896L987.056 12.468ZM998.768 18.724C997.67 18.724 996.704 18.5267 995.872 18.132C995.051 17.7267 994.406 17.1667 993.936 16.452C993.478 15.7373 993.248 14.9107 993.248 13.972C993.248 13.0227 993.478 12.196 993.936 11.492C994.406 10.7773 995.051 10.2227 995.872 9.828C996.704 9.42267 997.67 9.22 998.768 9.22C999.867 9.22 1000.83 9.42267 1001.65 9.828C1002.48 10.2227 1003.13 10.7773 1003.58 11.492C1004.05 12.196 1004.29 13.0227 1004.29 13.972C1004.29 14.9107 1004.05 15.7373 1003.58 16.452C1003.13 17.1667 1002.48 17.7267 1001.65 18.132C1000.83 18.5267 999.867 18.724 998.768 18.724ZM998.768 17.092C999.472 17.092 1000.07 16.964 1000.58 16.708C1001.09 16.452 1001.48 16.0947 1001.76 15.636C1002.04 15.1667 1002.18 14.612 1002.18 13.972C1002.18 13.332 1002.04 12.7827 1001.76 12.324C1001.48 11.8547 1001.09 11.492 1000.58 11.236C1000.07 10.98 999.472 10.852 998.768 10.852C998.075 10.852 997.472 10.98 996.96 11.236C996.448 11.492 996.054 11.8547 995.776 12.324C995.499 12.7827 995.36 13.332 995.36 13.972C995.36 14.612 995.499 15.1667 995.776 15.636C996.054 16.0947 996.448 16.452 996.96 16.708C997.472 16.964 998.075 17.092 998.768 17.092ZM1005.98 9.444H1008.04V18.5H1005.98V9.444ZM1013.68 9.444H1015.74V18.5H1013.68V9.444ZM1007.15 13.108H1014.54V14.708H1007.15V13.108ZM1020.81 10.164H1022.89V18.5H1020.81V10.164ZM1017.05 9.444H1026.65V11.076H1017.05V9.444ZM1036.04 18.5L1035.68 15.14L1036.1 13.972L1035.68 12.82L1036.04 9.444H1038.18L1037.7 13.972L1038.18 18.5H1036.04ZM1036.68 13.972C1036.47 14.9213 1036.14 15.7533 1035.67 16.468C1035.2 17.1827 1034.62 17.7373 1033.92 18.132C1033.24 18.5267 1032.48 18.724 1031.64 18.724C1030.75 18.724 1029.97 18.5267 1029.28 18.132C1028.6 17.7267 1028.07 17.1667 1027.68 16.452C1027.3 15.7373 1027.11 14.9107 1027.11 13.972C1027.11 13.0227 1027.3 12.196 1027.68 11.492C1028.07 10.7773 1028.6 10.2227 1029.28 9.828C1029.97 9.42267 1030.75 9.22 1031.64 9.22C1032.48 9.22 1033.24 9.41733 1033.92 9.812C1034.62 10.2067 1035.2 10.7613 1035.67 11.476C1036.15 12.18 1036.48 13.012 1036.68 13.972ZM1029.22 13.972C1029.22 14.58 1029.34 15.1187 1029.59 15.588C1029.84 16.0467 1030.19 16.4093 1030.63 16.676C1031.07 16.932 1031.57 17.06 1032.13 17.06C1032.71 17.06 1033.24 16.932 1033.73 16.676C1034.22 16.4093 1034.66 16.0467 1035.03 15.588C1035.41 15.1187 1035.72 14.58 1035.94 13.972C1035.72 13.364 1035.41 12.8307 1035.03 12.372C1034.66 11.9027 1034.22 11.54 1033.73 11.284C1033.24 11.0173 1032.71 10.884 1032.13 10.884C1031.57 10.884 1031.07 11.0173 1030.63 11.284C1030.19 11.54 1029.84 11.9027 1029.59 12.372C1029.34 12.8307 1029.22 13.364 1029.22 13.972ZM1040.18 18.5V9.444H1042.26V16.74L1041.64 16.516L1047.41 9.444H1049.78L1042.1 18.5H1040.18ZM1047.64 18.5L1044.82 14.02L1046.28 12.708L1050.07 18.5H1047.64ZM1053.97 10.164H1056.05V18.5H1053.97V10.164ZM1050.21 9.444H1059.81V11.076H1050.21V9.444ZM1071.3 9.444H1073.38V18.5H1071.3V9.444ZM1061.12 18.5V9.444H1063.2V17.924L1062.46 16.964H1066.34C1066.9 16.964 1067.34 16.8253 1067.66 16.548C1067.98 16.26 1068.14 15.8707 1068.14 15.38C1068.14 14.8787 1067.98 14.4893 1067.66 14.212C1067.34 13.924 1066.9 13.78 1066.34 13.78H1062.53V12.292H1066.61C1067.34 12.292 1067.98 12.4253 1068.53 12.692C1069.07 12.948 1069.49 13.3107 1069.79 13.78C1070.1 14.2387 1070.26 14.7773 1070.26 15.396C1070.26 16.0147 1070.1 16.5587 1069.79 17.028C1069.49 17.4973 1069.07 17.86 1068.53 18.116C1067.98 18.372 1067.35 18.5 1066.62 18.5H1061.12Z" fill="#2C3041"/>
</svg>
