<svg width="335" height="494" viewBox="0 0 335 494" fill="none" xmlns="http://www.w3.org/2000/svg">
<rect x="233.5" y="362.5" width="101" height="70" rx="35" fill="#F4F7FF"/>
<rect x="233.5" y="362.5" width="101" height="70" rx="35" stroke="#308DDD" stroke-dasharray="16 4"/>
<path d="M283.664 385.552C287.227 385.552 289.979 386.128 291.92 387.28C293.861 388.432 294.832 390.043 294.832 392.112C294.832 394.011 293.947 395.472 292.176 396.496C290.405 397.52 287.931 398 284.752 397.936V397.264C288.251 397.072 290.96 397.509 292.88 398.576C294.8 399.643 295.76 401.253 295.76 403.408C295.76 405.648 294.715 407.387 292.624 408.624C290.533 409.84 287.547 410.448 283.664 410.448C279.803 410.448 276.816 409.84 274.704 408.624C272.613 407.387 271.568 405.648 271.568 403.408C271.568 401.253 272.528 399.643 274.448 398.576C276.389 397.488 279.099 397.051 282.576 397.264V397.936C279.419 398 276.944 397.52 275.152 396.496C273.381 395.472 272.496 394.011 272.496 392.112C272.496 390.043 273.467 388.432 275.408 387.28C277.349 386.128 280.101 385.552 283.664 385.552ZM283.664 407.056C286.203 407.056 288.144 406.736 289.488 406.096C290.832 405.435 291.504 404.464 291.504 403.184C291.504 401.861 290.832 400.891 289.488 400.272C288.144 399.653 286.203 399.344 283.664 399.344C281.125 399.344 279.184 399.653 277.84 400.272C276.496 400.891 275.824 401.861 275.824 403.184C275.824 404.464 276.496 405.435 277.84 406.096C279.184 406.736 281.125 407.056 283.664 407.056ZM283.664 396.016C285.136 396.016 286.384 395.888 287.408 395.632C288.453 395.376 289.243 394.981 289.776 394.448C290.331 393.915 290.608 393.253 290.608 392.464C290.608 391.333 290 390.469 288.784 389.872C287.589 389.253 285.883 388.944 283.664 388.944C281.467 388.944 279.76 389.253 278.544 389.872C277.328 390.469 276.72 391.333 276.72 392.464C276.72 393.253 276.987 393.915 277.52 394.448C278.075 394.981 278.864 395.376 279.888 395.632C280.933 395.888 282.192 396.016 283.664 396.016Z" fill="#2C3041"/>
<path d="M270.204 456.944H279.116V466H277.036V457.584L277.996 458.544H271.244L272.14 457.808C272.193 458.469 272.236 459.099 272.268 459.696C272.31 460.283 272.332 460.811 272.332 461.28C272.332 462.987 272.092 464.229 271.612 465.008C271.132 465.787 270.358 466.176 269.292 466.176C269.004 466.176 268.726 466.144 268.46 466.08C268.193 466.016 267.937 465.915 267.692 465.776V464.224C267.884 464.299 268.07 464.357 268.252 464.4C268.444 464.443 268.62 464.464 268.78 464.464C269.366 464.464 269.788 464.192 270.044 463.648C270.31 463.104 270.444 462.219 270.444 460.992C270.444 460.459 270.422 459.851 270.38 459.168C270.348 458.485 270.289 457.744 270.204 456.944ZM286.267 466.224C285.211 466.224 284.272 466.027 283.451 465.632C282.629 465.227 281.984 464.667 281.515 463.952C281.045 463.237 280.811 462.405 280.811 461.456C280.811 460.517 281.029 459.696 281.467 458.992C281.915 458.277 282.528 457.723 283.307 457.328C284.096 456.923 284.997 456.72 286.011 456.72C287.024 456.72 287.899 456.949 288.635 457.408C289.381 457.856 289.957 458.491 290.363 459.312C290.768 460.133 290.971 461.099 290.971 462.208H282.443V460.624H289.931L288.891 461.216C288.859 460.619 288.715 460.107 288.459 459.68C288.213 459.253 287.877 458.928 287.451 458.704C287.035 458.469 286.539 458.352 285.963 458.352C285.355 458.352 284.821 458.475 284.363 458.72C283.915 458.965 283.563 459.312 283.307 459.76C283.051 460.197 282.923 460.72 282.923 461.328C282.923 462 283.072 462.581 283.371 463.072C283.68 463.563 284.112 463.941 284.667 464.208C285.232 464.464 285.899 464.592 286.667 464.592C287.36 464.592 288.069 464.485 288.795 464.272C289.52 464.048 290.16 463.739 290.715 463.344V464.848C290.16 465.275 289.483 465.611 288.683 465.856C287.893 466.101 287.088 466.224 286.267 466.224ZM295.124 457.664H297.204V466H295.124V457.664ZM291.364 456.944H300.964V458.576H291.364V456.944ZM306.042 456.944H308.106V466H306.042V456.944ZM313.738 456.944H315.802V466H313.738V456.944ZM307.21 460.608H314.602V462.208H307.21V460.608ZM326.458 466L326.106 462.64L326.522 461.472L326.106 460.32L326.458 456.944H328.602L328.122 461.472L328.602 466H326.458ZM327.098 461.472C326.896 462.421 326.56 463.253 326.09 463.968C325.621 464.683 325.04 465.237 324.346 465.632C323.664 466.027 322.901 466.224 322.058 466.224C321.173 466.224 320.389 466.027 319.706 465.632C319.024 465.227 318.49 464.667 318.106 463.952C317.722 463.237 317.53 462.411 317.53 461.472C317.53 460.523 317.722 459.696 318.106 458.992C318.49 458.277 319.024 457.723 319.706 457.328C320.389 456.923 321.173 456.72 322.058 456.72C322.901 456.72 323.664 456.917 324.346 457.312C325.04 457.707 325.621 458.261 326.09 458.976C326.57 459.68 326.906 460.512 327.098 461.472ZM319.642 461.472C319.642 462.08 319.765 462.619 320.01 463.088C320.266 463.547 320.613 463.909 321.05 464.176C321.488 464.432 321.989 464.56 322.554 464.56C323.13 464.56 323.664 464.432 324.154 464.176C324.645 463.909 325.077 463.547 325.45 463.088C325.834 462.619 326.138 462.08 326.362 461.472C326.138 460.864 325.834 460.331 325.45 459.872C325.077 459.403 324.645 459.04 324.154 458.784C323.664 458.517 323.13 458.384 322.554 458.384C321.989 458.384 321.488 458.517 321.05 458.784C320.613 459.04 320.266 459.403 320.01 459.872C319.765 460.331 319.642 460.864 319.642 461.472ZM269.76 479.944H271.84V483.096L271.744 483.416V485.24L271.84 485.8V491.64H269.76V479.944ZM271.04 484.472C271.243 483.512 271.579 482.68 272.048 481.976C272.518 481.261 273.094 480.707 273.776 480.312C274.47 479.917 275.238 479.72 276.08 479.72C276.966 479.72 277.75 479.923 278.432 480.328C279.115 480.723 279.648 481.277 280.032 481.992C280.416 482.696 280.608 483.523 280.608 484.472C280.608 485.411 280.416 486.237 280.032 486.952C279.648 487.667 279.115 488.227 278.432 488.632C277.75 489.027 276.966 489.224 276.08 489.224C275.238 489.224 274.475 489.027 273.792 488.632C273.11 488.237 272.528 487.683 272.048 486.968C271.579 486.253 271.243 485.421 271.04 484.472ZM278.496 484.472C278.496 483.864 278.368 483.331 278.112 482.872C277.867 482.403 277.526 482.04 277.088 481.784C276.651 481.517 276.15 481.384 275.584 481.384C275.019 481.384 274.486 481.517 273.984 481.784C273.494 482.04 273.062 482.403 272.688 482.872C272.315 483.331 272.011 483.864 271.776 484.472C272.011 485.08 272.315 485.619 272.688 486.088C273.062 486.547 273.494 486.909 273.984 487.176C274.486 487.432 275.019 487.56 275.584 487.56C276.15 487.56 276.651 487.432 277.088 487.176C277.526 486.909 277.867 486.547 278.112 486.088C278.368 485.619 278.496 485.08 278.496 484.472ZM292.514 479.944H294.594V489H292.514V479.944ZM282.338 489V479.944H284.418V488.424L283.682 487.464H287.554C288.12 487.464 288.562 487.325 288.882 487.048C289.202 486.76 289.362 486.371 289.362 485.88C289.362 485.379 289.202 484.989 288.882 484.712C288.562 484.424 288.12 484.28 287.554 484.28H283.746V482.792H287.826C288.562 482.792 289.202 482.925 289.746 483.192C290.29 483.448 290.712 483.811 291.01 484.28C291.32 484.739 291.474 485.277 291.474 485.896C291.474 486.515 291.32 487.059 291.01 487.528C290.712 487.997 290.29 488.36 289.746 488.616C289.202 488.872 288.568 489 287.842 489H282.338ZM296.807 479.944H298.871V489H296.807V479.944ZM304.503 479.944H306.567V489H304.503V479.944ZM297.975 483.608H305.367V485.208H297.975V483.608ZM308.776 489V479.944H310.856V487.24L310.232 487.016L316.008 479.944H318.376L310.696 489H308.776ZM316.232 489L313.416 484.52L314.872 483.208L318.664 489H316.232ZM324.189 489.224C323.133 489.224 322.194 489.027 321.373 488.632C320.551 488.227 319.906 487.667 319.437 486.952C318.967 486.237 318.733 485.405 318.733 484.456C318.733 483.517 318.951 482.696 319.389 481.992C319.837 481.277 320.45 480.723 321.229 480.328C322.018 479.923 322.919 479.72 323.933 479.72C324.946 479.72 325.821 479.949 326.557 480.408C327.303 480.856 327.879 481.491 328.285 482.312C328.69 483.133 328.893 484.099 328.893 485.208H320.365V483.624H327.853L326.813 484.216C326.781 483.619 326.637 483.107 326.381 482.68C326.135 482.253 325.799 481.928 325.373 481.704C324.957 481.469 324.461 481.352 323.885 481.352C323.277 481.352 322.743 481.475 322.285 481.72C321.837 481.965 321.485 482.312 321.229 482.76C320.973 483.197 320.845 483.72 320.845 484.328C320.845 485 320.994 485.581 321.293 486.072C321.602 486.563 322.034 486.941 322.589 487.208C323.154 487.464 323.821 487.592 324.589 487.592C325.282 487.592 325.991 487.485 326.717 487.272C327.442 487.048 328.082 486.739 328.637 486.344V487.848C328.082 488.275 327.405 488.611 326.605 488.856C325.815 489.101 325.01 489.224 324.189 489.224Z" fill="#2C3041"/>
<rect x="81.5" y="362.5" width="101" height="70" rx="35" fill="#F4F7FF"/>
<rect x="81.5" y="362.5" width="101" height="70" rx="35" stroke="#308DDD" stroke-dasharray="16 4"/>
<path d="M125.256 386V410H121.032V387.28L123.336 389.328L113.288 391.088V387.728L122.088 386H125.256ZM132.607 410L145.983 388.272L145.951 389.52H128.351V386H149.695V389.424L137.119 410H132.607Z" fill="#2C3041"/>
<path d="M47.5103 462.432C47.4036 463.179 47.1103 463.84 46.6303 464.416C46.1503 464.981 45.5369 465.424 44.7903 465.744C44.0436 466.064 43.2116 466.224 42.2943 466.224C41.2489 466.224 40.3263 466.027 39.5263 465.632C38.7369 465.227 38.1183 464.667 37.6703 463.952C37.2223 463.237 36.9983 462.411 36.9983 461.472C36.9983 460.533 37.2223 459.707 37.6703 458.992C38.1183 458.277 38.7369 457.723 39.5263 457.328C40.3263 456.923 41.2489 456.72 42.2943 456.72C43.2116 456.72 44.0436 456.88 44.7903 457.2C45.5369 457.52 46.1503 457.968 46.6303 458.544C47.1103 459.109 47.4036 459.771 47.5103 460.528H45.4143C45.2649 459.845 44.9076 459.312 44.3423 458.928C43.7769 458.544 43.0943 458.352 42.2943 458.352C41.6543 458.352 41.0943 458.48 40.6143 458.736C40.1343 458.981 39.7609 459.339 39.4943 459.808C39.2383 460.267 39.1103 460.821 39.1103 461.472C39.1103 462.112 39.2383 462.667 39.4943 463.136C39.7609 463.605 40.1343 463.968 40.6143 464.224C41.0943 464.469 41.6543 464.592 42.2943 464.592C43.1049 464.592 43.7929 464.395 44.3583 464C44.9236 463.605 45.2756 463.083 45.4143 462.432H47.5103ZM58.7844 456.944V466H56.7044V457.6L57.6644 458.544H50.2084L51.1684 457.6V466H49.0884V456.944H58.7844ZM65.9386 466.224C64.8826 466.224 63.944 466.027 63.1226 465.632C62.3013 465.227 61.656 464.667 61.1866 463.952C60.7173 463.237 60.4826 462.405 60.4826 461.456C60.4826 460.517 60.7013 459.696 61.1386 458.992C61.5866 458.277 62.2 457.723 62.9786 457.328C63.768 456.923 64.6693 456.72 65.6826 456.72C66.696 456.72 67.5706 456.949 68.3066 457.408C69.0533 457.856 69.6293 458.491 70.0346 459.312C70.44 460.133 70.6426 461.099 70.6426 462.208H62.1146V460.624H69.6026L68.5626 461.216C68.5306 460.619 68.3866 460.107 68.1306 459.68C67.8853 459.253 67.5493 458.928 67.1226 458.704C66.7066 458.469 66.2106 458.352 65.6346 458.352C65.0266 458.352 64.4933 458.475 64.0346 458.72C63.5866 458.965 63.2346 459.312 62.9786 459.76C62.7226 460.197 62.5946 460.72 62.5946 461.328C62.5946 462 62.744 462.581 63.0426 463.072C63.352 463.563 63.784 463.941 64.3386 464.208C64.904 464.464 65.5706 464.592 66.3386 464.592C67.032 464.592 67.7413 464.485 68.4666 464.272C69.192 464.048 69.832 463.739 70.3866 463.344V464.848C69.832 465.275 69.1546 465.611 68.3546 465.856C67.5653 466.101 66.76 466.224 65.9386 466.224ZM81.922 456.944V464.848L81.57 464.4H83.602V468.288H81.794V465.632L82.146 466H72.354V456.944H74.434V464.848L74.098 464.4H80.146L79.842 464.848V456.944H81.922ZM85.104 466V456.944H87.152V464.96L86.528 464.816L92.72 456.944H95.408V466H93.36V457.872L94 458.032L87.728 466H85.104ZM106.068 466L105.716 462.64L106.132 461.472L105.716 460.32L106.068 456.944H108.212L107.732 461.472L108.212 466H106.068ZM106.708 461.472C106.505 462.421 106.169 463.253 105.7 463.968C105.23 464.683 104.649 465.237 103.956 465.632C103.273 466.027 102.51 466.224 101.668 466.224C100.782 466.224 99.9983 466.027 99.3156 465.632C98.633 465.227 98.0996 464.667 97.7156 463.952C97.3316 463.237 97.1396 462.411 97.1396 461.472C97.1396 460.523 97.3316 459.696 97.7156 458.992C98.0996 458.277 98.633 457.723 99.3156 457.328C99.9983 456.923 100.782 456.72 101.668 456.72C102.51 456.72 103.273 456.917 103.956 457.312C104.649 457.707 105.23 458.261 105.7 458.976C106.18 459.68 106.516 460.512 106.708 461.472ZM99.2516 461.472C99.2516 462.08 99.3743 462.619 99.6196 463.088C99.8756 463.547 100.222 463.909 100.66 464.176C101.097 464.432 101.598 464.56 102.164 464.56C102.74 464.56 103.273 464.432 103.764 464.176C104.254 463.909 104.686 463.547 105.06 463.088C105.444 462.619 105.748 462.08 105.972 461.472C105.748 460.864 105.444 460.331 105.06 459.872C104.686 459.403 104.254 459.04 103.764 458.784C103.273 458.517 102.74 458.384 102.164 458.384C101.598 458.384 101.097 458.517 100.66 458.784C100.222 459.04 99.8756 459.403 99.6196 459.872C99.3743 460.331 99.2516 460.864 99.2516 461.472ZM111.797 456.944H120.709V466H118.629V457.584L119.589 458.544H112.837L113.733 457.808C113.787 458.469 113.829 459.099 113.861 459.696C113.904 460.283 113.925 460.811 113.925 461.28C113.925 462.987 113.685 464.229 113.205 465.008C112.725 465.787 111.952 466.176 110.885 466.176C110.597 466.176 110.32 466.144 110.053 466.08C109.787 466.016 109.531 465.915 109.285 465.776V464.224C109.477 464.299 109.664 464.357 109.845 464.4C110.037 464.443 110.213 464.464 110.373 464.464C110.96 464.464 111.381 464.192 111.637 463.648C111.904 463.104 112.037 462.219 112.037 460.992C112.037 460.459 112.016 459.851 111.973 459.168C111.941 458.485 111.883 457.744 111.797 456.944ZM122.917 466V456.944H124.965V464.96L124.341 464.816L130.533 456.944H133.221V466H131.173V457.872L131.812 458.032L125.541 466H122.917ZM145.432 462.432C145.325 463.179 145.032 463.84 144.552 464.416C144.072 464.981 143.459 465.424 142.712 465.744C141.965 466.064 141.133 466.224 140.216 466.224C139.171 466.224 138.248 466.027 137.448 465.632C136.659 465.227 136.04 464.667 135.592 463.952C135.144 463.237 134.92 462.411 134.92 461.472C134.92 460.533 135.144 459.707 135.592 458.992C136.04 458.277 136.659 457.723 137.448 457.328C138.248 456.923 139.171 456.72 140.216 456.72C141.133 456.72 141.965 456.88 142.712 457.2C143.459 457.52 144.072 457.968 144.552 458.544C145.032 459.109 145.325 459.771 145.432 460.528H143.336C143.187 459.845 142.829 459.312 142.264 458.928C141.699 458.544 141.016 458.352 140.216 458.352C139.576 458.352 139.016 458.48 138.536 458.736C138.056 458.981 137.683 459.339 137.416 459.808C137.16 460.267 137.032 460.821 137.032 461.472C137.032 462.112 137.16 462.667 137.416 463.136C137.683 463.605 138.056 463.968 138.536 464.224C139.016 464.469 139.576 464.592 140.216 464.592C141.027 464.592 141.715 464.395 142.28 464C142.845 463.605 143.197 463.083 143.336 462.432H145.432ZM149.484 457.664H151.564V466H149.484V457.664ZM145.724 456.944H155.324V458.576H145.724V456.944ZM161.253 466.224C160.154 466.224 159.189 466.027 158.357 465.632C157.535 465.227 156.89 464.667 156.421 463.952C155.962 463.237 155.733 462.411 155.733 461.472C155.733 460.523 155.962 459.696 156.421 458.992C156.89 458.277 157.535 457.723 158.357 457.328C159.189 456.923 160.154 456.72 161.253 456.72C162.351 456.72 163.311 456.923 164.133 457.328C164.965 457.723 165.61 458.277 166.069 458.992C166.538 459.696 166.773 460.523 166.773 461.472C166.773 462.411 166.538 463.237 166.069 463.952C165.61 464.667 164.965 465.227 164.133 465.632C163.311 466.027 162.351 466.224 161.253 466.224ZM161.253 464.592C161.957 464.592 162.559 464.464 163.061 464.208C163.573 463.952 163.967 463.595 164.245 463.136C164.522 462.667 164.661 462.112 164.661 461.472C164.661 460.832 164.522 460.283 164.245 459.824C163.967 459.355 163.573 458.992 163.061 458.736C162.559 458.48 161.957 458.352 161.253 458.352C160.559 458.352 159.957 458.48 159.445 458.736C158.933 458.992 158.538 459.355 158.261 459.824C157.983 460.283 157.845 460.832 157.845 461.472C157.845 462.112 157.983 462.667 158.261 463.136C158.538 463.595 158.933 463.952 159.445 464.208C159.957 464.464 160.559 464.592 161.253 464.592ZM168.255 466L168.719 461.472L168.255 456.944H174.815C175.69 456.944 176.373 457.147 176.863 457.552C177.365 457.957 177.615 458.517 177.615 459.232C177.615 459.893 177.365 460.427 176.863 460.832C176.373 461.227 175.685 461.461 174.799 461.536L174.959 461.152C176.005 461.173 176.805 461.387 177.359 461.792C177.914 462.197 178.191 462.768 178.191 463.504C178.191 464.283 177.909 464.896 177.343 465.344C176.789 465.781 176.015 466 175.023 466H168.255ZM170.271 465.488L169.471 464.56H174.495C175.061 464.56 175.466 464.453 175.711 464.24C175.967 464.016 176.095 463.707 176.095 463.312C176.095 462.96 175.951 462.667 175.663 462.432C175.386 462.197 174.917 462.08 174.255 462.08H169.919V460.736H173.951C174.495 460.736 174.89 460.629 175.135 460.416C175.391 460.192 175.519 459.904 175.519 459.552C175.519 459.211 175.407 458.933 175.183 458.72C174.97 458.496 174.607 458.384 174.095 458.384H169.487L170.271 457.472L170.719 461.472L170.271 465.488ZM83.4585 489L83.9225 484.472L83.4585 479.944H90.0185C90.8932 479.944 91.5758 480.147 92.0665 480.552C92.5678 480.957 92.8185 481.517 92.8185 482.232C92.8185 482.893 92.5678 483.427 92.0665 483.832C91.5758 484.227 90.8878 484.461 90.0025 484.536L90.1625 484.152C91.2078 484.173 92.0078 484.387 92.5625 484.792C93.1172 485.197 93.3945 485.768 93.3945 486.504C93.3945 487.283 93.1118 487.896 92.5465 488.344C91.9918 488.781 91.2185 489 90.2265 489H83.4585ZM85.4745 488.488L84.6745 487.56H89.6985C90.2638 487.56 90.6692 487.453 90.9145 487.24C91.1705 487.016 91.2985 486.707 91.2985 486.312C91.2985 485.96 91.1545 485.667 90.8665 485.432C90.5892 485.197 90.1198 485.08 89.4585 485.08H85.1225V483.736H89.1545C89.6985 483.736 90.0932 483.629 90.3385 483.416C90.5945 483.192 90.7225 482.904 90.7225 482.552C90.7225 482.211 90.6105 481.933 90.3865 481.72C90.1732 481.496 89.8105 481.384 89.2985 481.384H84.6905L85.4745 480.472L85.9225 484.472L85.4745 488.488ZM99.5471 477H101.659V489H99.5471V477ZM109.307 477H111.419V489H109.307V477ZM100.683 482.024H110.315V483.88H100.683V482.024ZM120.35 489.224C118.984 489.224 117.784 488.963 116.75 488.44C115.715 487.917 114.91 487.192 114.334 486.264C113.758 485.325 113.47 484.237 113.47 483C113.47 481.763 113.758 480.68 114.334 479.752C114.91 478.813 115.715 478.083 116.75 477.56C117.784 477.037 118.984 476.776 120.35 476.776C121.715 476.776 122.915 477.037 123.95 477.56C124.984 478.083 125.79 478.813 126.366 479.752C126.942 480.68 127.23 481.763 127.23 483C127.23 484.237 126.942 485.325 126.366 486.264C125.79 487.192 124.984 487.917 123.95 488.44C122.915 488.963 121.715 489.224 120.35 489.224ZM120.35 487.336C121.32 487.336 122.158 487.16 122.862 486.808C123.566 486.456 124.11 485.955 124.494 485.304C124.888 484.653 125.086 483.885 125.086 483C125.086 482.115 124.888 481.347 124.494 480.696C124.11 480.045 123.566 479.544 122.862 479.192C122.158 478.84 121.32 478.664 120.35 478.664C119.39 478.664 118.552 478.84 117.838 479.192C117.134 479.544 116.584 480.045 116.19 480.696C115.806 481.347 115.614 482.115 115.614 483C115.614 483.885 115.806 484.653 116.19 485.304C116.584 485.955 117.134 486.456 117.838 486.808C118.552 487.16 119.39 487.336 120.35 487.336ZM141.09 477V489H138.994V477.912L139.954 478.872H130.434L131.394 477.912V489H129.282V477H141.09ZM150.134 477C151.03 477 151.803 477.16 152.454 477.48C153.115 477.8 153.622 478.248 153.974 478.824C154.336 479.389 154.518 480.045 154.518 480.792C154.518 481.539 154.336 482.2 153.974 482.776C153.622 483.341 153.115 483.784 152.454 484.104C151.803 484.424 151.03 484.584 150.134 484.584H144.742V482.76H150.054C150.779 482.76 151.344 482.584 151.75 482.232C152.166 481.88 152.374 481.4 152.374 480.792C152.374 480.184 152.166 479.704 151.75 479.352C151.344 479 150.779 478.824 150.054 478.824H144.95L145.894 477.768V489H143.782V477H150.134ZM156.25 489V477H158.298V488.008L157.578 487.88L165.946 477H168.698V489H166.65V477.896L167.37 478.024L158.938 489H156.25ZM176.543 489.224C175.359 489.224 174.324 489.053 173.439 488.712C172.554 488.371 171.86 487.885 171.359 487.256C170.858 486.627 170.58 485.891 170.527 485.048H172.639C172.746 485.848 173.13 486.467 173.791 486.904C174.463 487.331 175.38 487.544 176.543 487.544C177.663 487.544 178.532 487.373 179.151 487.032C179.78 486.68 180.095 486.157 180.095 485.464C180.095 484.877 179.839 484.44 179.327 484.152C178.815 483.864 177.994 483.72 176.863 483.72H174.463V482.232H176.815C177.487 482.232 178.042 482.152 178.479 481.992C178.916 481.832 179.242 481.613 179.455 481.336C179.668 481.048 179.775 480.733 179.775 480.392C179.775 479.976 179.642 479.624 179.375 479.336C179.119 479.048 178.751 478.829 178.271 478.68C177.791 478.531 177.231 478.456 176.591 478.456C175.524 478.456 174.671 478.664 174.031 479.08C173.391 479.496 173.012 480.072 172.895 480.808H170.799C170.874 480.051 171.146 479.368 171.615 478.76C172.095 478.152 172.762 477.672 173.615 477.32C174.479 476.957 175.503 476.776 176.687 476.776C177.754 476.776 178.676 476.92 179.455 477.208C180.244 477.485 180.852 477.875 181.279 478.376C181.716 478.867 181.935 479.437 181.935 480.088C181.935 480.643 181.77 481.149 181.439 481.608C181.108 482.067 180.612 482.429 179.951 482.696C179.29 482.963 178.458 483.096 177.455 483.096V482.792C178.447 482.749 179.3 482.835 180.015 483.048C180.73 483.251 181.279 483.565 181.663 483.992C182.058 484.419 182.255 484.952 182.255 485.592C182.255 486.317 182.031 486.952 181.583 487.496C181.146 488.04 180.5 488.467 179.647 488.776C178.794 489.075 177.759 489.224 176.543 489.224Z" fill="#2C3041"/>
<rect x="61.5" y="181.5" width="273" height="70" rx="35" fill="#F4F7FF"/>
<rect x="61.5" y="181.5" width="273" height="70" rx="35" stroke="#308DDD" stroke-dasharray="16 4"/>
<path d="M93.748 214.6H104.948C106.74 214.6 108.255 214.909 109.492 215.528C110.751 216.125 111.7 216.968 112.34 218.056C113.001 219.123 113.332 220.381 113.332 221.832C113.332 223.261 112.991 224.52 112.308 225.608C111.625 226.675 110.655 227.507 109.396 228.104C108.137 228.701 106.655 229 104.948 229H90.356L92.244 216.328L90.356 205H111.348V208.52H93.012L94.612 206.376L96.276 216.264L94.548 227.72L92.916 225.608H104.564C105.951 225.608 107.049 225.267 107.86 224.584C108.692 223.88 109.108 222.931 109.108 221.736C109.108 220.541 108.692 219.603 107.86 218.92C107.028 218.216 105.919 217.864 104.532 217.864H93.748V214.6ZM126.599 229.448C124.402 229.448 122.471 229.053 120.807 228.264C119.164 227.453 117.874 226.333 116.935 224.904C116.018 223.475 115.559 221.821 115.559 219.944C115.559 218.045 116.018 216.392 116.935 214.984C117.874 213.555 119.164 212.445 120.807 211.656C122.471 210.845 124.402 210.44 126.599 210.44C128.796 210.44 130.716 210.845 132.359 211.656C134.023 212.445 135.314 213.555 136.231 214.984C137.17 216.392 137.639 218.045 137.639 219.944C137.639 221.821 137.17 223.475 136.231 224.904C135.314 226.333 134.023 227.453 132.359 228.264C130.716 229.053 128.796 229.448 126.599 229.448ZM126.599 226.184C128.007 226.184 129.212 225.928 130.215 225.416C131.239 224.904 132.028 224.189 132.583 223.272C133.138 222.333 133.415 221.224 133.415 219.944C133.415 218.664 133.138 217.565 132.583 216.648C132.028 215.709 131.239 214.984 130.215 214.472C129.212 213.96 128.007 213.704 126.599 213.704C125.212 213.704 124.007 213.96 122.983 214.472C121.959 214.984 121.17 215.709 120.615 216.648C120.06 217.565 119.783 218.664 119.783 219.944C119.783 221.224 120.06 222.333 120.615 223.272C121.17 224.189 121.959 224.904 122.983 225.416C124.007 225.928 125.212 226.184 126.599 226.184ZM143.564 210.888H161.388V229H157.228V212.168L159.148 214.088H145.644L147.436 212.616C147.542 213.939 147.628 215.197 147.692 216.392C147.777 217.565 147.82 218.621 147.82 219.56C147.82 222.973 147.34 225.459 146.38 227.016C145.42 228.573 143.873 229.352 141.74 229.352C141.164 229.352 140.609 229.288 140.076 229.16C139.542 229.032 139.03 228.829 138.54 228.552V225.448C138.924 225.597 139.297 225.715 139.66 225.8C140.044 225.885 140.396 225.928 140.716 225.928C141.889 225.928 142.732 225.384 143.244 224.296C143.777 223.208 144.044 221.437 144.044 218.984C144.044 217.917 144.001 216.701 143.916 215.336C143.852 213.971 143.734 212.488 143.564 210.888ZM175.69 229.448C173.578 229.448 171.7 229.053 170.058 228.264C168.415 227.453 167.124 226.333 166.186 224.904C165.247 223.475 164.778 221.811 164.778 219.912C164.778 218.035 165.215 216.392 166.09 214.984C166.986 213.555 168.212 212.445 169.77 211.656C171.348 210.845 173.151 210.44 175.178 210.44C177.204 210.44 178.954 210.899 180.426 211.816C181.919 212.712 183.071 213.981 183.882 215.624C184.692 217.267 185.098 219.197 185.098 221.416H168.042V218.248H183.018L180.938 219.432C180.874 218.237 180.586 217.213 180.074 216.36C179.583 215.507 178.911 214.856 178.058 214.408C177.226 213.939 176.234 213.704 175.082 213.704C173.866 213.704 172.799 213.949 171.882 214.44C170.986 214.931 170.282 215.624 169.77 216.52C169.258 217.395 169.002 218.44 169.002 219.656C169.002 221 169.3 222.163 169.898 223.144C170.516 224.125 171.38 224.883 172.49 225.416C173.62 225.928 174.954 226.184 176.49 226.184C177.876 226.184 179.295 225.971 180.746 225.544C182.196 225.096 183.476 224.477 184.586 223.688V226.696C183.476 227.549 182.122 228.221 180.522 228.712C178.943 229.203 177.332 229.448 175.69 229.448ZM198.409 229.448C196.297 229.448 194.419 229.053 192.777 228.264C191.134 227.453 189.843 226.333 188.905 224.904C187.966 223.475 187.497 221.811 187.497 219.912C187.497 218.035 187.934 216.392 188.809 214.984C189.705 213.555 190.931 212.445 192.489 211.656C194.067 210.845 195.87 210.44 197.897 210.44C199.923 210.44 201.673 210.899 203.145 211.816C204.638 212.712 205.79 213.981 206.601 215.624C207.411 217.267 207.817 219.197 207.817 221.416H190.761V218.248H205.737L203.657 219.432C203.593 218.237 203.305 217.213 202.793 216.36C202.302 215.507 201.63 214.856 200.777 214.408C199.945 213.939 198.953 213.704 197.801 213.704C196.585 213.704 195.518 213.949 194.601 214.44C193.705 214.931 193.001 215.624 192.489 216.52C191.977 217.395 191.721 218.44 191.721 219.656C191.721 221 192.019 222.163 192.617 223.144C193.235 224.125 194.099 224.883 195.209 225.416C196.339 225.928 197.673 226.184 199.209 226.184C200.595 226.184 202.014 225.971 203.465 225.544C204.915 225.096 206.195 224.477 207.305 223.688V226.696C206.195 227.549 204.841 228.221 203.241 228.712C201.662 229.203 200.051 229.448 198.409 229.448ZM222.044 229L235.42 207.272L235.388 208.52H217.788V205H239.132V208.424L226.556 229H222.044ZM253.929 229.448C251.305 229.448 249.044 228.936 247.145 227.912C245.246 226.867 243.785 225.416 242.761 223.56C241.737 221.683 241.225 219.496 241.225 217C241.225 214.504 241.737 212.328 242.761 210.472C243.785 208.595 245.246 207.144 247.145 206.12C249.044 205.075 251.305 204.552 253.929 204.552C256.553 204.552 258.804 205.075 260.681 206.12C262.58 207.144 264.041 208.595 265.065 210.472C266.089 212.328 266.601 214.504 266.601 217C266.601 219.496 266.089 221.683 265.065 223.56C264.041 225.416 262.58 226.867 260.681 227.912C258.804 228.936 256.553 229.448 253.929 229.448ZM253.929 225.96C256.596 225.96 258.665 225.181 260.137 223.624C261.609 222.045 262.345 219.837 262.345 217C262.345 214.163 261.609 211.965 260.137 210.408C258.665 208.829 256.596 208.04 253.929 208.04C251.262 208.04 249.182 208.829 247.689 210.408C246.217 211.965 245.481 214.163 245.481 217C245.481 219.837 246.217 222.045 247.689 223.624C249.182 225.181 251.262 225.96 253.929 225.96ZM276.86 218.792C275.324 218.792 273.969 218.504 272.796 217.928C271.622 217.331 270.705 216.499 270.044 215.432C269.382 214.365 269.052 213.139 269.052 211.752C269.052 210.365 269.382 209.149 270.044 208.104C270.705 207.037 271.622 206.216 272.796 205.64C273.969 205.043 275.324 204.744 276.86 204.744C278.417 204.744 279.772 205.043 280.924 205.64C282.097 206.216 283.014 207.037 283.676 208.104C284.337 209.149 284.668 210.365 284.668 211.752C284.668 213.139 284.337 214.365 283.676 215.432C283.014 216.499 282.097 217.331 280.924 217.928C279.772 218.504 278.417 218.792 276.86 218.792ZM276.86 216.136C278.225 216.136 279.302 215.752 280.092 214.984C280.881 214.195 281.276 213.117 281.276 211.752C281.276 210.408 280.881 209.341 280.092 208.552C279.302 207.763 278.225 207.368 276.86 207.368C275.494 207.368 274.417 207.763 273.628 208.552C272.838 209.341 272.444 210.408 272.444 211.752C272.444 213.117 272.838 214.195 273.628 214.984C274.417 215.752 275.494 216.136 276.86 216.136ZM298.332 229.384C296.796 229.384 295.441 229.096 294.268 228.52C293.094 227.923 292.177 227.091 291.516 226.024C290.854 224.957 290.524 223.731 290.524 222.344C290.524 220.957 290.854 219.741 291.516 218.696C292.177 217.629 293.094 216.808 294.268 216.232C295.441 215.635 296.796 215.336 298.332 215.336C299.889 215.336 301.244 215.635 302.396 216.232C303.569 216.808 304.486 217.629 305.148 218.696C305.809 219.741 306.14 220.957 306.14 222.344C306.14 223.731 305.809 224.957 305.148 226.024C304.486 227.091 303.569 227.923 302.396 228.52C301.244 229.096 299.889 229.384 298.332 229.384ZM298.332 226.728C299.697 226.728 300.774 226.344 301.564 225.576C302.353 224.787 302.748 223.709 302.748 222.344C302.748 221 302.353 219.933 301.564 219.144C300.774 218.355 299.697 217.96 298.332 217.96C296.966 217.96 295.889 218.355 295.1 219.144C294.31 219.933 293.916 221 293.916 222.344C293.916 223.709 294.31 224.787 295.1 225.576C295.889 226.344 296.966 226.728 298.332 226.728ZM292.476 205H295.772L282.748 229H279.484L292.476 205Z" fill="#2C3041"/>
<path d="M140.141 285V273H142.253V283.224L141.613 282.824L149.645 273H151.933L142.029 285H140.141ZM145.853 278.968L147.341 277.512L152.109 285H149.693L145.853 278.968ZM154.797 275.944H163.709V285H161.629V276.584L162.589 277.544H155.837L156.733 276.808C156.787 277.469 156.829 278.099 156.861 278.696C156.904 279.283 156.925 279.811 156.925 280.28C156.925 281.987 156.685 283.229 156.205 284.008C155.725 284.787 154.952 285.176 153.885 285.176C153.597 285.176 153.32 285.144 153.053 285.08C152.787 285.016 152.531 284.915 152.285 284.776V283.224C152.477 283.299 152.664 283.357 152.845 283.4C153.037 283.443 153.213 283.464 153.373 283.464C153.96 283.464 154.381 283.192 154.637 282.648C154.904 282.104 155.037 281.219 155.037 279.992C155.037 279.459 155.016 278.851 154.973 278.168C154.941 277.485 154.883 276.744 154.797 275.944ZM165.917 285V275.944H167.965V283.96L167.341 283.816L173.533 275.944H176.221V285H174.173V276.872L174.812 277.032L168.541 285H165.917ZM183.376 285.224C182.32 285.224 181.381 285.027 180.56 284.632C179.739 284.227 179.093 283.667 178.624 282.952C178.155 282.237 177.92 281.405 177.92 280.456C177.92 279.517 178.139 278.696 178.576 277.992C179.024 277.277 179.637 276.723 180.416 276.328C181.205 275.923 182.107 275.72 183.12 275.72C184.133 275.72 185.008 275.949 185.744 276.408C186.491 276.856 187.067 277.491 187.472 278.312C187.877 279.133 188.08 280.099 188.08 281.208H179.552V279.624H187.04L186 280.216C185.968 279.619 185.824 279.107 185.568 278.68C185.323 278.253 184.987 277.928 184.56 277.704C184.144 277.469 183.648 277.352 183.072 277.352C182.464 277.352 181.931 277.475 181.472 277.72C181.024 277.965 180.672 278.312 180.416 278.76C180.16 279.197 180.032 279.72 180.032 280.328C180.032 281 180.181 281.581 180.48 282.072C180.789 282.563 181.221 282.941 181.776 283.208C182.341 283.464 183.008 283.592 183.776 283.592C184.469 283.592 185.179 283.485 185.904 283.272C186.629 283.048 187.269 282.739 187.824 282.344V283.848C187.269 284.275 186.592 284.611 185.792 284.856C185.003 285.101 184.197 285.224 183.376 285.224ZM189.792 275.944H191.856V285H189.792V275.944ZM197.488 275.944H199.552V285H197.488V275.944ZM190.96 279.608H198.352V281.208H190.96V279.608ZM204.624 276.664H206.704V285H204.624V276.664ZM200.864 275.944H210.464V277.576H200.864V275.944ZM216.393 285.224C215.295 285.224 214.329 285.027 213.497 284.632C212.676 284.227 212.031 283.667 211.561 282.952C211.103 282.237 210.873 281.411 210.873 280.472C210.873 279.523 211.103 278.696 211.561 277.992C212.031 277.277 212.676 276.723 213.497 276.328C214.329 275.923 215.295 275.72 216.393 275.72C217.492 275.72 218.452 275.923 219.273 276.328C220.105 276.723 220.751 277.277 221.209 277.992C221.679 278.696 221.913 279.523 221.913 280.472C221.913 281.411 221.679 282.237 221.209 282.952C220.751 283.667 220.105 284.227 219.273 284.632C218.452 285.027 217.492 285.224 216.393 285.224ZM216.393 283.592C217.097 283.592 217.7 283.464 218.201 283.208C218.713 282.952 219.108 282.595 219.385 282.136C219.663 281.667 219.801 281.112 219.801 280.472C219.801 279.832 219.663 279.283 219.385 278.824C219.108 278.355 218.713 277.992 218.201 277.736C217.7 277.48 217.097 277.352 216.393 277.352C215.7 277.352 215.097 277.48 214.585 277.736C214.073 277.992 213.679 278.355 213.401 278.824C213.124 279.283 212.985 279.832 212.985 280.472C212.985 281.112 213.124 281.667 213.401 282.136C213.679 282.595 214.073 282.952 214.585 283.208C215.097 283.464 215.7 283.592 216.393 283.592ZM223.396 285L223.86 280.472L223.396 275.944H229.956C230.831 275.944 231.513 276.147 232.004 276.552C232.505 276.957 232.756 277.517 232.756 278.232C232.756 278.893 232.505 279.427 232.004 279.832C231.513 280.227 230.825 280.461 229.94 280.536L230.1 280.152C231.145 280.173 231.945 280.387 232.5 280.792C233.055 281.197 233.332 281.768 233.332 282.504C233.332 283.283 233.049 283.896 232.484 284.344C231.929 284.781 231.156 285 230.164 285H223.396ZM225.412 284.488L224.612 283.56H229.636C230.201 283.56 230.607 283.453 230.852 283.24C231.108 283.016 231.236 282.707 231.236 282.312C231.236 281.96 231.092 281.667 230.804 281.432C230.527 281.197 230.057 281.08 229.396 281.08H225.06V279.736H229.092C229.636 279.736 230.031 279.629 230.276 279.416C230.532 279.192 230.66 278.904 230.66 278.552C230.66 278.211 230.548 277.933 230.324 277.72C230.111 277.496 229.748 277.384 229.236 277.384H224.628L225.412 276.472L225.86 280.472L225.412 284.488ZM248.941 275.944V285H246.861V276.6L247.821 277.544H240.365L241.325 276.6V285H239.245V275.944H248.941ZM251.151 275.944H253.231V279.096L253.135 279.416V281.24L253.231 281.8V287.64H251.151V275.944ZM252.431 280.472C252.634 279.512 252.97 278.68 253.439 277.976C253.908 277.261 254.484 276.707 255.167 276.312C255.86 275.917 256.628 275.72 257.471 275.72C258.356 275.72 259.14 275.923 259.823 276.328C260.506 276.723 261.039 277.277 261.423 277.992C261.807 278.696 261.999 279.523 261.999 280.472C261.999 281.411 261.807 282.237 261.423 282.952C261.039 283.667 260.506 284.227 259.823 284.632C259.14 285.027 258.356 285.224 257.471 285.224C256.628 285.224 255.866 285.027 255.183 284.632C254.5 284.237 253.919 283.683 253.439 282.968C252.97 282.253 252.634 281.421 252.431 280.472ZM259.887 280.472C259.887 279.864 259.759 279.331 259.503 278.872C259.258 278.403 258.916 278.04 258.479 277.784C258.042 277.517 257.54 277.384 256.975 277.384C256.41 277.384 255.876 277.517 255.375 277.784C254.884 278.04 254.452 278.403 254.079 278.872C253.706 279.331 253.402 279.864 253.167 280.472C253.402 281.08 253.706 281.619 254.079 282.088C254.452 282.547 254.884 282.909 255.375 283.176C255.876 283.432 256.41 283.56 256.975 283.56C257.54 283.56 258.042 283.432 258.479 283.176C258.916 282.909 259.258 282.547 259.503 282.088C259.759 281.619 259.887 281.08 259.887 280.472ZM263.729 285V275.944H265.777V283.96L265.153 283.816L271.345 275.944H274.033V285H271.985V276.872L272.625 277.032L266.353 285H263.729ZM275.045 285L279.413 279.832L279.397 280.856L275.301 275.944H277.685L280.789 279.624H279.909L283.029 275.944H285.333L281.157 280.888L281.077 279.688L285.589 285H283.205L279.813 281.032H280.725L277.365 285H275.045ZM291.003 285.224C289.904 285.224 288.939 285.027 288.107 284.632C287.285 284.227 286.64 283.667 286.171 282.952C285.712 282.237 285.483 281.411 285.483 280.472C285.483 279.523 285.712 278.696 286.171 277.992C286.64 277.277 287.285 276.723 288.107 276.328C288.939 275.923 289.904 275.72 291.003 275.72C292.101 275.72 293.061 275.923 293.883 276.328C294.715 276.723 295.36 277.277 295.819 277.992C296.288 278.696 296.523 279.523 296.523 280.472C296.523 281.411 296.288 282.237 295.819 282.952C295.36 283.667 294.715 284.227 293.883 284.632C293.061 285.027 292.101 285.224 291.003 285.224ZM291.003 283.592C291.707 283.592 292.309 283.464 292.811 283.208C293.323 282.952 293.717 282.595 293.995 282.136C294.272 281.667 294.411 281.112 294.411 280.472C294.411 279.832 294.272 279.283 293.995 278.824C293.717 278.355 293.323 277.992 292.811 277.736C292.309 277.48 291.707 277.352 291.003 277.352C290.309 277.352 289.707 277.48 289.195 277.736C288.683 277.992 288.288 278.355 288.011 278.824C287.733 279.283 287.595 279.832 287.595 280.472C287.595 281.112 287.733 281.667 288.011 282.136C288.288 282.595 288.683 282.952 289.195 283.208C289.707 283.464 290.309 283.592 291.003 283.592ZM309.598 283.4V287.288H307.79V285H298.734V287.288H296.926V283.4H299.262L299.838 283.432H306.446L306.958 283.4H309.598ZM298.942 275.944H307.918V284.392H305.838V276.584L306.798 277.544H300.03L300.926 276.84C300.979 277.309 301.011 277.763 301.022 278.2C301.043 278.627 301.054 279.027 301.054 279.4C301.054 280.957 300.84 282.179 300.414 283.064C299.998 283.949 299.411 284.392 298.654 284.392L297.806 283.672C298.68 283.032 299.118 281.475 299.118 279C299.118 278.52 299.102 278.024 299.07 277.512C299.038 276.989 298.995 276.467 298.942 275.944ZM318.64 280.216V281.672H314.064L314.032 281.624C313.371 281.624 312.789 281.507 312.288 281.272C311.787 281.037 311.397 280.707 311.12 280.28C310.843 279.853 310.704 279.357 310.704 278.792C310.704 278.227 310.843 277.731 311.12 277.304C311.397 276.877 311.787 276.547 312.288 276.312C312.789 276.067 313.371 275.944 314.032 275.944H320.112V285H318.032V276.536L318.72 277.432H314.48C313.957 277.432 313.547 277.555 313.248 277.8C312.96 278.045 312.816 278.381 312.816 278.808C312.816 279.235 312.96 279.576 313.248 279.832C313.547 280.088 313.957 280.216 314.48 280.216H318.64ZM316.288 280.76L312.928 285H310.512L313.968 280.76H316.288ZM325.187 276.664H327.267V285H325.187V276.664ZM321.427 275.944H331.027V277.576H321.427V275.944ZM168.925 298.944V308H166.845V299.6L167.805 300.544H160.349L161.309 299.6V308H159.229V298.944H168.925ZM176.143 308.224C175.045 308.224 174.079 308.027 173.247 307.632C172.426 307.227 171.781 306.667 171.311 305.952C170.853 305.237 170.623 304.411 170.623 303.472C170.623 302.523 170.853 301.696 171.311 300.992C171.781 300.277 172.426 299.723 173.247 299.328C174.079 298.923 175.045 298.72 176.143 298.72C177.242 298.72 178.202 298.923 179.023 299.328C179.855 299.723 180.501 300.277 180.959 300.992C181.429 301.696 181.663 302.523 181.663 303.472C181.663 304.411 181.429 305.237 180.959 305.952C180.501 306.667 179.855 307.227 179.023 307.632C178.202 308.027 177.242 308.224 176.143 308.224ZM176.143 306.592C176.847 306.592 177.45 306.464 177.951 306.208C178.463 305.952 178.858 305.595 179.135 305.136C179.413 304.667 179.551 304.112 179.551 303.472C179.551 302.832 179.413 302.283 179.135 301.824C178.858 301.355 178.463 300.992 177.951 300.736C177.45 300.48 176.847 300.352 176.143 300.352C175.45 300.352 174.847 300.48 174.335 300.736C173.823 300.992 173.429 301.355 173.151 301.824C172.874 302.283 172.735 302.832 172.735 303.472C172.735 304.112 172.874 304.667 173.151 305.136C173.429 305.595 173.823 305.952 174.335 306.208C174.847 306.464 175.45 306.592 176.143 306.592ZM187.588 298.944H189.668V302.096L189.572 302.416V304.24L189.668 304.8V310.64H187.588V298.944ZM188.868 303.472C189.071 302.512 189.407 301.68 189.876 300.976C190.346 300.261 190.922 299.707 191.604 299.312C192.298 298.917 193.066 298.72 193.908 298.72C194.794 298.72 195.578 298.923 196.26 299.328C196.943 299.723 197.476 300.277 197.86 300.992C198.244 301.696 198.436 302.523 198.436 303.472C198.436 304.411 198.244 305.237 197.86 305.952C197.476 306.667 196.943 307.227 196.26 307.632C195.578 308.027 194.794 308.224 193.908 308.224C193.066 308.224 192.303 308.027 191.62 307.632C190.938 307.237 190.356 306.683 189.876 305.968C189.407 305.253 189.071 304.421 188.868 303.472ZM196.324 303.472C196.324 302.864 196.196 302.331 195.94 301.872C195.695 301.403 195.354 301.04 194.916 300.784C194.479 300.517 193.978 300.384 193.412 300.384C192.847 300.384 192.314 300.517 191.812 300.784C191.322 301.04 190.89 301.403 190.516 301.872C190.143 302.331 189.839 302.864 189.604 303.472C189.839 304.08 190.143 304.619 190.516 305.088C190.89 305.547 191.322 305.909 191.812 306.176C192.314 306.432 192.847 306.56 193.412 306.56C193.978 306.56 194.479 306.432 194.916 306.176C195.354 305.909 195.695 305.547 195.94 305.088C196.196 304.619 196.324 304.08 196.324 303.472ZM205.111 308.224C204.055 308.224 203.116 308.027 202.295 307.632C201.473 307.227 200.828 306.667 200.359 305.952C199.889 305.237 199.655 304.405 199.655 303.456C199.655 302.517 199.873 301.696 200.311 300.992C200.759 300.277 201.372 299.723 202.151 299.328C202.94 298.923 203.841 298.72 204.855 298.72C205.868 298.72 206.743 298.949 207.479 299.408C208.225 299.856 208.801 300.491 209.207 301.312C209.612 302.133 209.815 303.099 209.815 304.208H201.287V302.624H208.775L207.735 303.216C207.703 302.619 207.559 302.107 207.303 301.68C207.057 301.253 206.721 300.928 206.295 300.704C205.879 300.469 205.383 300.352 204.807 300.352C204.199 300.352 203.665 300.475 203.207 300.72C202.759 300.965 202.407 301.312 202.151 301.76C201.895 302.197 201.767 302.72 201.767 303.328C201.767 304 201.916 304.581 202.215 305.072C202.524 305.563 202.956 305.941 203.511 306.208C204.076 306.464 204.743 306.592 205.511 306.592C206.204 306.592 206.913 306.485 207.639 306.272C208.364 306.048 209.004 305.739 209.559 305.344V306.848C209.004 307.275 208.327 307.611 207.527 307.856C206.737 308.101 205.932 308.224 205.111 308.224ZM211.526 308V298.944H213.606V306.24L212.982 306.016L218.758 298.944H221.126L213.446 308H211.526ZM218.982 308L216.166 303.52L217.622 302.208L221.414 308H218.982ZM227.003 308.224C225.904 308.224 224.939 308.027 224.107 307.632C223.285 307.227 222.64 306.667 222.171 305.952C221.712 305.237 221.483 304.411 221.483 303.472C221.483 302.523 221.712 301.696 222.171 300.992C222.64 300.277 223.285 299.723 224.107 299.328C224.939 298.923 225.904 298.72 227.003 298.72C228.101 298.72 229.061 298.923 229.883 299.328C230.715 299.723 231.36 300.277 231.819 300.992C232.288 301.696 232.523 302.523 232.523 303.472C232.523 304.411 232.288 305.237 231.819 305.952C231.36 306.667 230.715 307.227 229.883 307.632C229.061 308.027 228.101 308.224 227.003 308.224ZM227.003 306.592C227.707 306.592 228.309 306.464 228.811 306.208C229.323 305.952 229.717 305.595 229.995 305.136C230.272 304.667 230.411 304.112 230.411 303.472C230.411 302.832 230.272 302.283 229.995 301.824C229.717 301.355 229.323 300.992 228.811 300.736C228.309 300.48 227.707 300.352 227.003 300.352C226.309 300.352 225.707 300.48 225.195 300.736C224.683 300.992 224.288 301.355 224.011 301.824C223.733 302.283 223.595 302.832 223.595 303.472C223.595 304.112 223.733 304.667 224.011 305.136C224.288 305.595 224.683 305.952 225.195 306.208C225.707 306.464 226.309 306.592 227.003 306.592ZM234.213 308V298.944H237.301L241.109 307.008H240.293L244.069 298.944H247.157V308H245.205V299.632H245.749L241.701 308H239.669L235.621 299.664L236.165 299.648V308H234.213ZM254.314 308.224C253.258 308.224 252.319 308.027 251.498 307.632C250.676 307.227 250.031 306.667 249.562 305.952C249.092 305.237 248.858 304.405 248.858 303.456C248.858 302.517 249.076 301.696 249.514 300.992C249.962 300.277 250.575 299.723 251.354 299.328C252.143 298.923 253.044 298.72 254.058 298.72C255.071 298.72 255.946 298.949 256.682 299.408C257.428 299.856 258.004 300.491 258.41 301.312C258.815 302.133 259.018 303.099 259.018 304.208H250.49V302.624H257.978L256.938 303.216C256.906 302.619 256.762 302.107 256.506 301.68C256.26 301.253 255.924 300.928 255.498 300.704C255.082 300.469 254.586 300.352 254.01 300.352C253.402 300.352 252.868 300.475 252.41 300.72C251.962 300.965 251.61 301.312 251.354 301.76C251.098 302.197 250.97 302.72 250.97 303.328C250.97 304 251.119 304.581 251.418 305.072C251.727 305.563 252.159 305.941 252.714 306.208C253.279 306.464 253.946 306.592 254.714 306.592C255.407 306.592 256.116 306.485 256.842 306.272C257.567 306.048 258.207 305.739 258.762 305.344V306.848C258.207 307.275 257.53 307.611 256.73 307.856C255.94 308.101 255.135 308.224 254.314 308.224ZM260.729 298.944H262.793V308H260.729V298.944ZM268.425 298.944H270.489V308H268.425V298.944ZM261.897 302.608H269.289V304.208H261.897V302.608ZM284.426 306.4V310.288H282.618V308H273.562V310.288H271.754V306.4H274.09L274.666 306.432H281.274L281.786 306.4H284.426ZM273.77 298.944H282.746V307.392H280.666V299.584L281.626 300.544H274.858L275.754 299.84C275.807 300.309 275.839 300.763 275.85 301.2C275.871 301.627 275.882 302.027 275.882 302.4C275.882 303.957 275.668 305.179 275.242 306.064C274.826 306.949 274.239 307.392 273.482 307.392L272.634 306.672C273.508 306.032 273.946 304.475 273.946 302C273.946 301.52 273.93 301.024 273.898 300.512C273.866 299.989 273.823 299.467 273.77 298.944ZM294.177 308L293.825 304.64L294.241 303.472L293.825 302.32L294.177 298.944H296.321L295.841 303.472L296.321 308H294.177ZM294.817 303.472C294.614 304.421 294.278 305.253 293.809 305.968C293.34 306.683 292.758 307.237 292.065 307.632C291.382 308.027 290.62 308.224 289.777 308.224C288.892 308.224 288.108 308.027 287.425 307.632C286.742 307.227 286.209 306.667 285.825 305.952C285.441 305.237 285.249 304.411 285.249 303.472C285.249 302.523 285.441 301.696 285.825 300.992C286.209 300.277 286.742 299.723 287.425 299.328C288.108 298.923 288.892 298.72 289.777 298.72C290.62 298.72 291.382 298.917 292.065 299.312C292.758 299.707 293.34 300.261 293.809 300.976C294.289 301.68 294.625 302.512 294.817 303.472ZM287.361 303.472C287.361 304.08 287.484 304.619 287.729 305.088C287.985 305.547 288.332 305.909 288.769 306.176C289.206 306.432 289.708 306.56 290.273 306.56C290.849 306.56 291.382 306.432 291.873 306.176C292.364 305.909 292.796 305.547 293.169 305.088C293.553 304.619 293.857 304.08 294.081 303.472C293.857 302.864 293.553 302.331 293.169 301.872C292.796 301.403 292.364 301.04 291.873 300.784C291.382 300.517 290.849 300.384 290.273 300.384C289.708 300.384 289.206 300.517 288.769 300.784C288.332 301.04 287.985 301.403 287.729 301.872C287.484 302.331 287.361 302.864 287.361 303.472ZM307.891 298.944V306.848L307.539 306.4H309.571V310.288H307.763V307.632L308.115 308H298.323V298.944H300.403V306.848L300.067 306.4H306.115L305.811 306.848V298.944H307.891ZM311.073 308V298.944H313.121V306.96L312.497 306.816L318.689 298.944H321.377V308H319.329V299.872L319.969 300.032L313.697 308H311.073ZM323.588 308V298.944H325.636V306.96L325.012 306.816L331.204 298.944H333.892V308H331.844V299.872L332.484 300.032L326.212 308H323.588Z" fill="#2C3041"/>
<rect x="212.5" y="0.5" width="122" height="70" rx="35" fill="#F4F7FF"/>
<rect x="212.5" y="0.5" width="122" height="70" rx="35" stroke="#308DDD" stroke-dasharray="16 4"/>
<path d="M237.824 31.392C237.973 29.92 238.507 28.5973 239.424 27.424C240.363 26.2293 241.664 25.2907 243.328 24.608C245.013 23.904 247.019 23.552 249.344 23.552C251.413 23.552 253.205 23.8293 254.72 24.384C256.256 24.9173 257.44 25.6747 258.272 26.656C259.104 27.616 259.52 28.7573 259.52 30.08C259.52 31.1893 259.189 32.192 258.528 33.088C257.888 33.9627 256.907 34.656 255.584 35.168C254.261 35.68 252.608 35.936 250.624 35.936V35.328C252.587 35.2427 254.272 35.424 255.68 35.872C257.088 36.2987 258.165 36.96 258.912 37.856C259.68 38.7307 260.064 39.808 260.064 41.088C260.064 42.5173 259.627 43.7867 258.752 44.896C257.877 46.0053 256.608 46.88 254.944 47.52C253.301 48.1387 251.285 48.448 248.896 48.448C246.571 48.448 244.544 48.1173 242.816 47.456C241.088 46.7733 239.733 45.824 238.752 44.608C237.792 43.392 237.259 41.9733 237.152 40.352H241.408C241.6 41.8453 242.325 42.9973 243.584 43.808C244.843 44.5973 246.613 44.992 248.896 44.992C251.179 44.992 252.896 44.6187 254.048 43.872C255.2 43.1253 255.776 42.1013 255.776 40.8C255.776 40.032 255.573 39.392 255.168 38.88C254.784 38.3467 254.133 37.9413 253.216 37.664C252.32 37.3867 251.104 37.248 249.568 37.248H245.216V34.112H249.568C251.552 34.112 252.992 33.792 253.888 33.152C254.784 32.4907 255.232 31.648 255.232 30.624C255.232 29.4933 254.731 28.608 253.728 27.968C252.747 27.328 251.211 27.008 249.12 27.008C247.072 27.008 245.44 27.392 244.224 28.16C243.029 28.9067 242.315 29.984 242.08 31.392H237.824ZM276.023 48.448C273.399 48.448 271.137 47.936 269.239 46.912C267.34 45.8667 265.879 44.416 264.855 42.56C263.831 40.6827 263.319 38.496 263.319 36C263.319 33.504 263.831 31.328 264.855 29.472C265.879 27.5947 267.34 26.144 269.239 25.12C271.137 24.0747 273.399 23.552 276.023 23.552C278.647 23.552 280.897 24.0747 282.775 25.12C284.673 26.144 286.135 27.5947 287.159 29.472C288.183 31.328 288.695 33.504 288.695 36C288.695 38.496 288.183 40.6827 287.159 42.56C286.135 44.416 284.673 45.8667 282.775 46.912C280.897 47.936 278.647 48.448 276.023 48.448ZM276.023 44.96C278.689 44.96 280.759 44.1813 282.231 42.624C283.703 41.0453 284.439 38.8373 284.439 36C284.439 33.1627 283.703 30.9653 282.231 29.408C280.759 27.8293 278.689 27.04 276.023 27.04C273.356 27.04 271.276 27.8293 269.783 29.408C268.311 30.9653 267.575 33.1627 267.575 36C267.575 38.8373 268.311 41.0453 269.783 42.624C271.276 44.1813 273.356 44.96 276.023 44.96ZM298.601 45.632V27.712H301.801V45.632H298.601ZM291.241 38.272V35.072H309.161V38.272H291.241Z" fill="#2C3041"/>
<path d="M259.704 94.944H268.616V104H266.536V95.584L267.496 96.544H260.744L261.64 95.808C261.693 96.4693 261.736 97.0987 261.768 97.696C261.81 98.2827 261.832 98.8107 261.832 99.28C261.832 100.987 261.592 102.229 261.112 103.008C260.632 103.787 259.858 104.176 258.792 104.176C258.504 104.176 258.226 104.144 257.96 104.08C257.693 104.016 257.437 103.915 257.192 103.776V102.224C257.384 102.299 257.57 102.357 257.752 102.4C257.944 102.443 258.12 102.464 258.28 102.464C258.866 102.464 259.288 102.192 259.544 101.648C259.81 101.104 259.944 100.219 259.944 98.992C259.944 98.4587 259.922 97.8507 259.88 97.168C259.848 96.4853 259.789 95.744 259.704 94.944ZM275.767 104.224C274.711 104.224 273.772 104.027 272.951 103.632C272.129 103.227 271.484 102.667 271.015 101.952C270.545 101.237 270.311 100.405 270.311 99.456C270.311 98.5173 270.529 97.696 270.967 96.992C271.415 96.2773 272.028 95.7227 272.807 95.328C273.596 94.9227 274.497 94.72 275.511 94.72C276.524 94.72 277.399 94.9493 278.135 95.408C278.881 95.856 279.457 96.4907 279.863 97.312C280.268 98.1333 280.471 99.0987 280.471 100.208H271.943V98.624H279.431L278.391 99.216C278.359 98.6187 278.215 98.1067 277.959 97.68C277.713 97.2533 277.377 96.928 276.951 96.704C276.535 96.4693 276.039 96.352 275.463 96.352C274.855 96.352 274.321 96.4747 273.863 96.72C273.415 96.9653 273.063 97.312 272.807 97.76C272.551 98.1973 272.423 98.72 272.423 99.328C272.423 100 272.572 100.581 272.871 101.072C273.18 101.563 273.612 101.941 274.167 102.208C274.732 102.464 275.399 102.592 276.167 102.592C276.86 102.592 277.569 102.485 278.295 102.272C279.02 102.048 279.66 101.739 280.215 101.344V102.848C279.66 103.275 278.983 103.611 278.183 103.856C277.393 104.101 276.588 104.224 275.767 104.224ZM284.624 95.664H286.704V104H284.624V95.664ZM280.864 94.944H290.464V96.576H280.864V94.944ZM295.542 94.944H297.606V104H295.542V94.944ZM303.238 94.944H305.302V104H303.238V94.944ZM296.71 98.608H304.102V100.208H296.71V98.608ZM315.958 104L315.606 100.64L316.022 99.472L315.606 98.32L315.958 94.944H318.102L317.622 99.472L318.102 104H315.958ZM316.598 99.472C316.396 100.421 316.06 101.253 315.59 101.968C315.121 102.683 314.54 103.237 313.846 103.632C313.164 104.027 312.401 104.224 311.558 104.224C310.673 104.224 309.889 104.027 309.206 103.632C308.524 103.227 307.99 102.667 307.606 101.952C307.222 101.237 307.03 100.411 307.03 99.472C307.03 98.5227 307.222 97.696 307.606 96.992C307.99 96.2773 308.524 95.7227 309.206 95.328C309.889 94.9227 310.673 94.72 311.558 94.72C312.401 94.72 313.164 94.9173 313.846 95.312C314.54 95.7067 315.121 96.2613 315.59 96.976C316.07 97.68 316.406 98.512 316.598 99.472ZM309.142 99.472C309.142 100.08 309.265 100.619 309.51 101.088C309.766 101.547 310.113 101.909 310.55 102.176C310.988 102.432 311.489 102.56 312.054 102.56C312.63 102.56 313.164 102.432 313.654 102.176C314.145 101.909 314.577 101.547 314.95 101.088C315.334 100.619 315.638 100.08 315.862 99.472C315.638 98.864 315.334 98.3307 314.95 97.872C314.577 97.4027 314.145 97.04 313.654 96.784C313.164 96.5173 312.63 96.384 312.054 96.384C311.489 96.384 310.988 96.5173 310.55 96.784C310.113 97.04 309.766 97.4027 309.51 97.872C309.265 98.3307 309.142 98.864 309.142 99.472ZM259.26 117.944H261.34V121.096L261.244 121.416V123.24L261.34 123.8V129.64H259.26V117.944ZM260.54 122.472C260.743 121.512 261.079 120.68 261.548 119.976C262.018 119.261 262.594 118.707 263.276 118.312C263.97 117.917 264.738 117.72 265.58 117.72C266.466 117.72 267.25 117.923 267.932 118.328C268.615 118.723 269.148 119.277 269.532 119.992C269.916 120.696 270.108 121.523 270.108 122.472C270.108 123.411 269.916 124.237 269.532 124.952C269.148 125.667 268.615 126.227 267.932 126.632C267.25 127.027 266.466 127.224 265.58 127.224C264.738 127.224 263.975 127.027 263.292 126.632C262.61 126.237 262.028 125.683 261.548 124.968C261.079 124.253 260.743 123.421 260.54 122.472ZM267.996 122.472C267.996 121.864 267.868 121.331 267.612 120.872C267.367 120.403 267.026 120.04 266.588 119.784C266.151 119.517 265.65 119.384 265.084 119.384C264.519 119.384 263.986 119.517 263.484 119.784C262.994 120.04 262.562 120.403 262.188 120.872C261.815 121.331 261.511 121.864 261.276 122.472C261.511 123.08 261.815 123.619 262.188 124.088C262.562 124.547 262.994 124.909 263.484 125.176C263.986 125.432 264.519 125.56 265.084 125.56C265.65 125.56 266.151 125.432 266.588 125.176C267.026 124.909 267.367 124.547 267.612 124.088C267.868 123.619 267.996 123.08 267.996 122.472ZM282.014 117.944H284.094V127H282.014V117.944ZM271.838 127V117.944H273.918V126.424L273.182 125.464H277.054C277.62 125.464 278.062 125.325 278.382 125.048C278.702 124.76 278.862 124.371 278.862 123.88C278.862 123.379 278.702 122.989 278.382 122.712C278.062 122.424 277.62 122.28 277.054 122.28H273.246V120.792H277.326C278.062 120.792 278.702 120.925 279.246 121.192C279.79 121.448 280.212 121.811 280.51 122.28C280.82 122.739 280.974 123.277 280.974 123.896C280.974 124.515 280.82 125.059 280.51 125.528C280.212 125.997 279.79 126.36 279.246 126.616C278.702 126.872 278.068 127 277.342 127H271.838ZM286.307 117.944H288.371V127H286.307V117.944ZM294.003 117.944H296.067V127H294.003V117.944ZM287.475 121.608H294.867V123.208H287.475V121.608ZM298.276 127V117.944H300.356V125.24L299.732 125.016L305.508 117.944H307.876L300.196 127H298.276ZM305.732 127L302.916 122.52L304.372 121.208L308.164 127H305.732ZM313.689 127.224C312.633 127.224 311.694 127.027 310.873 126.632C310.051 126.227 309.406 125.667 308.937 124.952C308.467 124.237 308.233 123.405 308.233 122.456C308.233 121.517 308.451 120.696 308.889 119.992C309.337 119.277 309.95 118.723 310.729 118.328C311.518 117.923 312.419 117.72 313.433 117.72C314.446 117.72 315.321 117.949 316.057 118.408C316.803 118.856 317.379 119.491 317.785 120.312C318.19 121.133 318.393 122.099 318.393 123.208H309.865V121.624H317.353L316.313 122.216C316.281 121.619 316.137 121.107 315.881 120.68C315.635 120.253 315.299 119.928 314.873 119.704C314.457 119.469 313.961 119.352 313.385 119.352C312.777 119.352 312.243 119.475 311.785 119.72C311.337 119.965 310.985 120.312 310.729 120.76C310.473 121.197 310.345 121.72 310.345 122.328C310.345 123 310.494 123.581 310.793 124.072C311.102 124.563 311.534 124.941 312.089 125.208C312.654 125.464 313.321 125.592 314.089 125.592C314.782 125.592 315.491 125.485 316.217 125.272C316.942 125.048 317.582 124.739 318.137 124.344V125.848C317.582 126.275 316.905 126.611 316.105 126.856C315.315 127.101 314.51 127.224 313.689 127.224Z" fill="#2C3041"/>
<rect x="64.5" y="0.5" width="98" height="70" rx="35" fill="#F4F7FF"/>
<rect x="64.5" y="0.5" width="98" height="70" rx="35" stroke="#308DDD" stroke-dasharray="16 4"/>
<path d="M102.324 31.392C102.473 29.92 103.007 28.5973 103.924 27.424C104.863 26.2293 106.164 25.2907 107.828 24.608C109.513 23.904 111.519 23.552 113.844 23.552C115.913 23.552 117.705 23.8293 119.22 24.384C120.756 24.9173 121.94 25.6747 122.772 26.656C123.604 27.616 124.02 28.7573 124.02 30.08C124.02 31.1893 123.689 32.192 123.028 33.088C122.388 33.9627 121.407 34.656 120.084 35.168C118.761 35.68 117.108 35.936 115.124 35.936V35.328C117.087 35.2427 118.772 35.424 120.18 35.872C121.588 36.2987 122.665 36.96 123.412 37.856C124.18 38.7307 124.564 39.808 124.564 41.088C124.564 42.5173 124.127 43.7867 123.252 44.896C122.377 46.0053 121.108 46.88 119.444 47.52C117.801 48.1387 115.785 48.448 113.396 48.448C111.071 48.448 109.044 48.1173 107.316 47.456C105.588 46.7733 104.233 45.824 103.252 44.608C102.292 43.392 101.759 41.9733 101.652 40.352H105.908C106.1 41.8453 106.825 42.9973 108.084 43.808C109.343 44.5973 111.113 44.992 113.396 44.992C115.679 44.992 117.396 44.6187 118.548 43.872C119.7 43.1253 120.276 42.1013 120.276 40.8C120.276 40.032 120.073 39.392 119.668 38.88C119.284 38.3467 118.633 37.9413 117.716 37.664C116.82 37.3867 115.604 37.248 114.068 37.248H109.716V34.112H114.068C116.052 34.112 117.492 33.792 118.388 33.152C119.284 32.4907 119.732 31.648 119.732 30.624C119.732 29.4933 119.231 28.608 118.228 27.968C117.247 27.328 115.711 27.008 113.62 27.008C111.572 27.008 109.94 27.392 108.724 28.16C107.529 28.9067 106.815 29.984 106.58 31.392H102.324Z" fill="#2C3041"/>
<path d="M84.2249 97.12V98.88H75.8409V97.12H84.2249ZM77.2329 98L76.3849 103.36L75.3769 102.176H84.6889V104H74.2249L75.1849 98L74.2249 92H84.6089V93.824H75.3769L76.3849 92.64L77.2329 98ZM98.3789 102.4V106.288H96.5709V104H87.5149V106.288H85.7069V102.4H88.0429L88.6189 102.432H95.2269L95.7389 102.4H98.3789ZM87.7229 94.944H96.6989V103.392H94.6189V95.584L95.5789 96.544H88.8109L89.7069 95.84C89.7602 96.3093 89.7922 96.7627 89.8029 97.2C89.8242 97.6267 89.8349 98.0267 89.8349 98.4C89.8349 99.9573 89.6215 101.179 89.1949 102.064C88.7789 102.949 88.1922 103.392 87.4349 103.392L86.5869 102.672C87.4615 102.032 87.8989 100.475 87.8989 98C87.8989 97.52 87.8829 97.024 87.8509 96.512C87.8189 95.9893 87.7762 95.4667 87.7229 94.944ZM99.8853 104V94.944H101.933V102.96L101.309 102.816L107.501 94.944H110.189V104H108.141V95.872L108.781 96.032L102.509 104H99.8853ZM112.401 94.944H114.465V104H112.401V94.944ZM120.097 94.944H122.161V104H120.097V94.944ZM113.569 98.608H120.961V100.208H113.569V98.608ZM124.37 104V94.944H126.418V102.96L125.794 102.816L131.986 94.944H134.674V104H132.626V95.872L133.266 96.032L126.994 104H124.37ZM146.453 94.944V102.848L146.101 102.4H148.133V106.288H146.325V103.632L146.677 104H136.885V94.944H138.965V102.848L138.629 102.4H144.677L144.373 102.848V94.944H146.453ZM159.811 94.944H161.891V104H159.811V94.944ZM149.635 104V94.944H151.715V103.424L150.979 102.464H154.851C155.417 102.464 155.859 102.325 156.179 102.048C156.499 101.76 156.659 101.371 156.659 100.88C156.659 100.379 156.499 99.9893 156.179 99.712C155.859 99.424 155.417 99.28 154.851 99.28H151.043V97.792H155.123C155.859 97.792 156.499 97.9253 157.043 98.192C157.587 98.448 158.009 98.8107 158.307 99.28C158.617 99.7387 158.771 100.277 158.771 100.896C158.771 101.515 158.617 102.059 158.307 102.528C158.009 102.997 157.587 103.36 157.043 103.616C156.499 103.872 155.865 104 155.139 104H149.635ZM88.0618 118.664H90.1418V127H88.0618V118.664ZM84.3018 117.944H93.9018V119.576H84.3018V117.944ZM99.7668 127.224C98.7108 127.224 97.7721 127.027 96.9508 126.632C96.1294 126.227 95.4841 125.667 95.0148 124.952C94.5454 124.237 94.3108 123.405 94.3108 122.456C94.3108 121.517 94.5294 120.696 94.9668 119.992C95.4148 119.277 96.0281 118.723 96.8068 118.328C97.5961 117.923 98.4974 117.72 99.5108 117.72C100.524 117.72 101.399 117.949 102.135 118.408C102.881 118.856 103.457 119.491 103.863 120.312C104.268 121.133 104.471 122.099 104.471 123.208H95.9428V121.624H103.431L102.391 122.216C102.359 121.619 102.215 121.107 101.959 120.68C101.713 120.253 101.377 119.928 100.951 119.704C100.535 119.469 100.039 119.352 99.4628 119.352C98.8548 119.352 98.3214 119.475 97.8628 119.72C97.4148 119.965 97.0628 120.312 96.8068 120.76C96.5508 121.197 96.4228 121.72 96.4228 122.328C96.4228 123 96.5721 123.581 96.8708 124.072C97.1801 124.563 97.6121 124.941 98.1668 125.208C98.7321 125.464 99.3988 125.592 100.167 125.592C100.86 125.592 101.569 125.485 102.295 125.272C103.02 125.048 103.66 124.739 104.215 124.344V125.848C103.66 126.275 102.983 126.611 102.183 126.856C101.393 127.101 100.588 127.224 99.7668 127.224ZM104.638 127L109.006 121.832L108.99 122.856L104.894 117.944H107.278L110.382 121.624H109.502L112.622 117.944H114.926L110.75 122.888L110.67 121.688L115.182 127H112.798L109.406 123.032H110.318L106.958 127H104.638ZM116.182 117.944H118.246V127H116.182V117.944ZM123.878 117.944H125.942V127H123.878V117.944ZM117.35 121.608H124.742V123.208H117.35V121.608ZM128.151 127V117.944H130.199V125.96L129.575 125.816L135.767 117.944H138.455V127H136.407V118.872L137.047 119.032L130.775 127H128.151ZM140.667 127V117.944H142.747V125.24L142.123 125.016L147.899 117.944H150.267L142.587 127H140.667ZM148.123 127L145.307 122.52L146.763 121.208L150.555 127H148.123ZM151.588 127V117.944H153.636V125.96L153.012 125.816L159.204 117.944H161.892V127H159.844V118.872L160.484 119.032L154.212 127H151.588Z" fill="#2C3041"/>
</svg>
